# Blender v3.4.1 OBJ File: 'Pacmaze.blend'
# www.blender.org
mtllib 100_ShortWall.mtl
o ShortWall_Plane.868
v -0.697727 0.000000 0.000000
v -1.000000 0.302273 0.000000
v -0.911466 0.088534 0.000000
v 3.000000 0.302273 0.000000
v 2.697727 0.000000 0.000000
v 2.911467 0.088534 0.000000
v -0.697727 2.000000 0.000000
v -1.000000 1.697727 0.000000
v -0.911466 1.911466 0.000000
v 2.697727 2.000000 0.000000
v 3.000000 1.697727 0.000000
v 2.911467 1.911466 0.000000
v -0.689826 1.636030 3.000000
v -1.000000 1.697727 2.689826
v -0.909152 1.679656 2.909152
v -1.000000 0.302273 2.689826
v -0.689826 0.363970 3.000000
v -0.909152 0.320344 2.909152
v -0.911466 0.088534 2.689826
v -0.674069 0.325931 3.000000
v -0.841934 0.158066 2.909152
v -0.697727 0.000000 2.689826
v -0.636030 0.310174 3.000000
v -0.679656 0.090848 2.909152
v 2.697727 0.000000 2.689826
v 2.636029 0.310174 3.000000
v 2.679656 0.090848 2.909152
v 2.911467 0.088534 2.689826
v 2.674069 0.325931 3.000000
v 2.841935 0.158066 2.909152
v 3.000000 0.302273 2.689826
v 2.689826 0.363970 3.000000
v 2.909152 0.320344 2.909152
v 3.000000 1.697727 2.689826
v 2.689826 1.636030 3.000000
v 2.909152 1.679656 2.909152
v 2.911467 1.911466 2.689826
v 2.674069 1.674069 3.000000
v 2.841935 1.841935 2.909152
v 2.697727 2.000000 2.689826
v 2.636030 1.689826 3.000000
v 2.679656 1.909152 2.909152
v -0.697727 2.000000 2.689826
v -0.636030 1.689826 3.000000
v -0.679656 1.909152 2.909152
v -0.911466 1.911466 2.689826
v -0.674069 1.674069 3.000000
v -0.841934 1.841935 2.909152
vt 0.924432 1.000000
vt 1.000000 0.151136
vt 0.924432 0.000000
vt 0.000000 0.848864
vt 0.022133 0.955733
vt 0.022133 0.955733
vt 0.075568 1.000000
vt 0.924432 1.000000
vt 1.000000 0.848864
vt 1.000000 0.151136
vt 0.075568 0.000000
vt 0.075568 0.000000
vt 0.075568 1.000000
vt 0.977867 0.955733
vt 1.000000 0.848863
vt 0.977867 0.044267
vt 0.924432 0.000000
vt 0.909007 0.155087
vt 0.922456 0.181985
vt 0.909007 0.844913
vt 0.977867 0.955733
vt 0.977867 0.044267
vt 0.022133 0.044267
vt 0.000000 0.151136
vt 0.000000 0.151136
vt 0.022133 0.044267
vt 0.000000 0.848863
vt 0.077544 0.818015
vt 0.077544 0.181985
vt 0.090993 0.155087
vt 0.081483 0.162965
vt 0.090993 0.844913
vt 0.918517 0.162965
vt 0.922456 0.818015
vt 0.918517 0.837035
vt 0.081483 0.837035
vt 0.000864 0.848520
vt 0.000864 0.151480
vt 0.024679 0.049358
vt 0.075740 0.001729
vt 0.924260 0.001729
vt 0.975321 0.049358
vt 0.999136 0.151480
vt 0.975321 0.950642
vt 0.999136 0.848520
vt 0.924260 0.998271
vt 0.075740 0.998271
vt 0.024679 0.950642
vn 0.0000 0.0000 -1.0000
vn -0.9239 0.3827 0.0000
vn 0.0000 1.0000 0.0000
vn 1.0000 0.0000 0.0000
vn 0.0000 -1.0000 0.0000
vn -0.3827 0.9239 0.0000
vn 0.9239 0.3827 0.0000
vn 0.3827 -0.9239 0.0000
vn -0.0000 0.0000 1.0000
vn 0.3827 0.9239 0.0000
vn 0.9239 -0.3827 0.0000
vn -0.9239 -0.3827 0.0000
vn -0.3827 -0.9239 0.0000
vn -1.0000 0.0000 0.0000
vn -0.9239 0.0000 0.3827
vn -0.3827 0.0000 0.9239
vn -0.8536 -0.3536 0.3827
vn -0.3536 -0.1464 0.9239
vn -0.3536 -0.8536 0.3827
vn -0.1464 -0.3536 0.9239
vn 0.0000 -0.9239 0.3827
vn 0.0000 -0.3827 0.9239
vn 0.3536 -0.8536 0.3827
vn 0.1465 -0.3536 0.9239
vn 0.8536 -0.3536 0.3827
vn 0.3536 -0.1464 0.9239
vn 0.9239 0.0000 0.3827
vn 0.3827 0.0000 0.9239
vn 0.8536 0.3536 0.3827
vn 0.3536 0.1464 0.9239
vn 0.3536 0.8536 0.3827
vn 0.1464 0.3536 0.9239
vn 0.0000 0.9239 0.3827
vn 0.0000 0.3827 0.9239
vn -0.3536 0.8536 0.3827
vn -0.1464 0.3536 0.9239
vn -0.8536 0.3536 0.3827
vn -0.3536 0.1464 0.9239
vn 0.1464 -0.3536 0.9239
vn 0.1464 0.3535 0.9239
usemtl Material.003
s off
f 10/1/1 4/2/1 5/3/1
f 8/4/2 46/5/2 9/6/2
f 7/7/3 40/8/3 10/1/3
f 11/9/4 31/10/4 4/2/4
f 5/3/5 22/11/5 1/12/5
f 9/6/6 43/13/6 7/7/6
f 12/14/7 34/15/7 11/9/7
f 6/16/8 25/17/8 5/3/8
f 26/18/9 32/19/9 41/20/9
f 10/1/10 37/21/10 12/14/10
f 4/2/11 28/22/11 6/16/11
f 3/23/12 16/24/12 2/25/12
f 1/12/13 19/26/13 3/23/13
f 2/25/14 14/27/14 8/4/14
f 3/23/1 2/25/1 1/12/1
f 2/25/1 8/4/1 1/12/1
f 8/4/1 9/6/1 7/7/1
f 7/7/1 10/1/1 5/3/1
f 10/1/1 12/14/1 11/9/1
f 4/2/1 10/1/1 11/9/1
f 4/2/1 6/16/1 5/3/1
f 5/3/1 1/12/1 7/7/1
f 7/7/1 1/12/1 8/4/1
f 8/4/2 14/27/2 46/5/2
f 7/7/3 43/13/3 40/8/3
f 11/9/4 34/15/4 31/10/4
f 5/3/5 25/17/5 22/11/5
f 9/6/6 46/5/6 43/13/6
f 12/14/7 37/21/7 34/15/7
f 6/16/8 28/22/8 25/17/8
f 13/28/9 17/29/9 23/30/9
f 17/29/9 20/31/9 23/30/9
f 23/30/9 26/18/9 44/32/9
f 13/28/9 23/30/9 44/32/9
f 26/18/9 29/33/9 32/19/9
f 32/19/9 35/34/9 41/20/9
f 35/34/9 38/35/9 41/20/9
f 41/20/9 44/32/9 26/18/9
f 44/32/9 47/36/9 13/28/9
f 10/1/10 40/8/10 37/21/10
f 4/2/11 31/10/11 28/22/11
f 3/23/12 19/26/12 16/24/12
f 1/12/13 22/11/13 19/26/13
f 2/25/14 16/24/14 14/27/14
usemtl Material.005
f 16/24/15 15/37/15 14/27/15
f 18/38/16 13/28/16 15/37/16
f 16/24/17 21/39/17 18/38/17
f 18/38/18 20/31/18 17/29/18
f 22/11/19 21/39/19 19/26/19
f 24/40/20 20/31/20 21/39/20
f 25/17/21 24/40/21 22/11/21
f 27/41/22 23/30/22 24/40/22
f 25/17/23 30/42/23 27/41/23
f 27/41/24 29/33/24 26/18/24
f 31/10/25 30/42/25 28/22/25
f 33/43/26 29/33/26 30/42/26
f 34/15/27 33/43/27 31/10/27
f 33/43/28 35/34/28 32/19/28
f 34/15/29 39/44/29 36/45/29
f 36/45/30 38/35/30 35/34/30
f 40/8/31 39/44/31 37/21/31
f 42/46/32 38/35/32 39/44/32
f 43/13/33 42/46/33 40/8/33
f 45/47/34 41/20/34 42/46/34
f 43/13/35 48/48/35 45/47/35
f 45/47/36 47/36/36 44/32/36
f 14/27/37 48/48/37 46/5/37
f 15/37/38 47/36/38 48/48/38
f 16/24/15 18/38/15 15/37/15
f 18/38/16 17/29/16 13/28/16
f 16/24/17 19/26/17 21/39/17
f 18/38/18 21/39/18 20/31/18
f 22/11/19 24/40/19 21/39/19
f 24/40/20 23/30/20 20/31/20
f 25/17/21 27/41/21 24/40/21
f 27/41/22 26/18/22 23/30/22
f 25/17/23 28/22/23 30/42/23
f 27/41/39 30/42/39 29/33/39
f 31/10/25 33/43/25 30/42/25
f 33/43/26 32/19/26 29/33/26
f 34/15/27 36/45/27 33/43/27
f 33/43/28 36/45/28 35/34/28
f 34/15/29 37/21/29 39/44/29
f 36/45/30 39/44/30 38/35/30
f 40/8/31 42/46/31 39/44/31
f 42/46/40 41/20/40 38/35/40
f 43/13/33 45/47/33 42/46/33
f 45/47/34 44/32/34 41/20/34
f 43/13/35 46/5/35 48/48/35
f 45/47/36 48/48/36 47/36/36
f 14/27/37 15/37/37 48/48/37
f 15/37/38 13/28/38 47/36/38
