# Blender v3.4.1 OBJ File: 'Pacmaze.blend'
# www.blender.org
mtllib 100_GhostHouse.mtl
o GhostHouse_Plane.857
v -3.000000 2.000000 0.000000
v -4.000000 1.000000 0.000000
v -4.000000 -2.000000 0.000000
v -3.000000 -3.000000 0.000000
v 0.000000 -2.000000 0.000000
v 0.000000 -3.000000 0.000000
v -3.000000 0.697727 0.000000
v -2.697727 1.000000 0.000000
v -2.911467 0.911466 0.000000
v -1.000000 1.302273 0.000000
v -1.302273 1.000000 0.000000
v -1.088534 1.088534 0.000000
v -1.302273 2.000000 0.000000
v -1.000000 1.697727 0.000000
v -1.088534 1.911466 0.000000
v -3.697727 2.000000 0.000000
v -4.000000 1.697727 0.000000
v -3.911467 1.911466 0.000000
v -2.697727 -2.000000 0.000000
v -3.000000 -1.697727 0.000000
v -2.911467 -1.911466 0.000000
v -4.000000 -2.697727 0.000000
v -3.697727 -3.000000 0.000000
v -3.911467 -2.911467 0.000000
v -4.000000 1.000000 2.689826
v -3.689826 1.000000 3.000000
v -3.909152 1.000000 2.909152
v -3.689826 -2.000000 3.000000
v -4.000000 -2.000000 2.689826
v -3.909152 -2.000000 2.909152
v -3.000000 -3.000000 2.689826
v -3.000000 -2.689826 3.000000
v -3.000000 -2.909152 2.909152
v 0.000000 -3.000000 2.689826
v 0.000000 -2.689826 3.000000
v 0.000000 -2.909152 2.909152
v 0.000000 -2.310174 3.000000
v 0.000000 -2.000000 2.689826
v 0.000000 -2.090848 2.909152
v -3.148864 1.148863 3.000000
v -2.911467 0.911466 2.689826
v -2.980999 0.980998 2.909152
v -3.000000 0.697727 2.689826
v -3.310174 0.759425 3.000000
v -3.090848 0.715798 2.909152
v -2.759424 1.310174 3.000000
v -2.697727 1.000000 2.689826
v -2.715798 1.090848 2.909152
v -3.148864 -2.148863 3.000000
v -2.911467 -1.911466 2.689826
v -2.980999 -1.980998 2.909152
v -2.697727 -2.000000 2.689826
v -2.759424 -2.310174 3.000000
v -2.715798 -2.090848 2.909152
v -3.310174 -1.759425 3.000000
v -3.000000 -1.697727 2.689826
v -3.090848 -1.715798 2.909152
v -4.000000 1.697727 2.689826
v -3.689826 1.636030 3.000000
v -3.909152 1.679656 2.909152
v -3.911467 1.911466 2.689826
v -3.674069 1.674069 3.000000
v -3.841935 1.841935 2.909152
v -3.697727 2.000000 2.689826
v -3.636030 1.689826 3.000000
v -3.679656 1.909152 2.909152
v -3.000000 2.000000 2.689826
v -3.000000 1.689826 3.000000
v -3.000000 1.909152 2.909152
v -1.363970 1.310174 3.000000
v -1.302273 1.000000 2.689826
v -1.320344 1.090848 2.909152
v -1.302273 2.000000 2.689826
v -1.363970 1.689826 3.000000
v -1.320344 1.909152 2.909152
v -1.088534 1.911466 2.689826
v -1.325930 1.674069 3.000000
v -1.158065 1.841935 2.909152
v -1.000000 1.697727 2.689826
v -1.310174 1.636030 3.000000
v -1.090848 1.679656 2.909152
v -1.000000 1.302273 2.689826
v -1.310174 1.363970 3.000000
v -1.090848 1.320344 2.909152
v -1.088534 1.088534 2.689826
v -1.325931 1.325930 3.000000
v -1.158065 1.158065 2.909152
v -3.697727 -3.000000 2.689826
v -3.636030 -2.689826 3.000000
v -3.679656 -2.909152 2.909152
v -3.911467 -2.911467 2.689826
v -3.674069 -2.674070 3.000000
v -3.841934 -2.841935 2.909152
v -4.000000 -2.697727 2.689826
v -3.689826 -2.636030 3.000000
v -3.909152 -2.679656 2.909152
v 3.000000 2.000000 0.000000
v 4.000000 1.000000 0.000000
v 4.000000 -2.000000 0.000000
v 3.000000 -3.000000 0.000000
v 3.000000 0.697727 0.000000
v 2.697727 1.000000 0.000000
v 2.911467 0.911466 0.000000
v 1.000000 1.302273 0.000000
v 1.302273 1.000000 0.000000
v 1.088534 1.088534 0.000000
v 1.302273 2.000000 0.000000
v 1.000000 1.697727 0.000000
v 1.088534 1.911466 0.000000
v 3.697727 2.000000 0.000000
v 4.000000 1.697727 0.000000
v 3.911467 1.911466 0.000000
v 2.697727 -2.000000 0.000000
v 3.000000 -1.697727 0.000000
v 2.911467 -1.911466 0.000000
v 4.000000 -2.697727 0.000000
v 3.697727 -3.000000 0.000000
v 3.911467 -2.911467 0.000000
v 4.000000 1.000000 2.689826
v 3.689826 1.000000 3.000000
v 3.909152 1.000000 2.909152
v 3.689826 -2.000000 3.000000
v 4.000000 -2.000000 2.689826
v 3.909152 -2.000000 2.909152
v 3.000000 -3.000000 2.689826
v 3.000000 -2.689826 3.000000
v 3.000000 -2.909152 2.909152
v 3.148864 1.148863 3.000000
v 2.911467 0.911466 2.689826
v 2.980999 0.980998 2.909152
v 3.000000 0.697727 2.689826
v 3.310174 0.759425 3.000000
v 3.090848 0.715798 2.909152
v 2.759424 1.310174 3.000000
v 2.697727 1.000000 2.689826
v 2.715798 1.090848 2.909152
v 3.148864 -2.148863 3.000000
v 2.911467 -1.911466 2.689826
v 2.980999 -1.980998 2.909152
v 2.697727 -2.000000 2.689826
v 2.759424 -2.310174 3.000000
v 2.715798 -2.090848 2.909152
v 3.310174 -1.759425 3.000000
v 3.000000 -1.697727 2.689826
v 3.090848 -1.715798 2.909152
v 4.000000 1.697727 2.689826
v 3.689826 1.636030 3.000000
v 3.909152 1.679656 2.909152
v 3.911467 1.911466 2.689826
v 3.674069 1.674069 3.000000
v 3.841935 1.841935 2.909152
v 3.697727 2.000000 2.689826
v 3.636030 1.689826 3.000000
v 3.679656 1.909152 2.909152
v 3.000000 2.000000 2.689826
v 3.000000 1.689826 3.000000
v 3.000000 1.909152 2.909152
v 1.363970 1.310174 3.000000
v 1.302273 1.000000 2.689826
v 1.320344 1.090848 2.909152
v 1.302273 2.000000 2.689826
v 1.363970 1.689826 3.000000
v 1.320344 1.909152 2.909152
v 1.088534 1.911466 2.689826
v 1.325930 1.674069 3.000000
v 1.158065 1.841935 2.909152
v 1.000000 1.697727 2.689826
v 1.310174 1.636030 3.000000
v 1.090848 1.679656 2.909152
v 1.000000 1.302273 2.689826
v 1.310174 1.363970 3.000000
v 1.090848 1.320344 2.909152
v 1.088534 1.088534 2.689826
v 1.325931 1.325930 3.000000
v 1.158065 1.158065 2.909152
v 3.697727 -3.000000 2.689826
v 3.636030 -2.689826 3.000000
v 3.679656 -2.909152 2.909152
v 3.911467 -2.911467 2.689826
v 3.674069 -2.674070 3.000000
v 3.841934 -2.841935 2.909152
v 4.000000 -2.697727 2.689826
v 3.689826 -2.636030 3.000000
v 3.909152 -2.679656 2.909152
vt 0.848864 0.000000
vt 1.000000 0.302273
vt 0.848864 1.000000
vt 0.000000 0.697727
vt 0.000000 0.000000
vt 0.000000 0.000000
vt 0.000000 0.000000
vt 0.000000 0.000000
vt 0.000000 0.000000
vt 0.000000 0.000000
vt 0.000000 0.000000
vt 0.000000 0.000000
vt 0.000000 1.000000
vt 0.000000 1.000000
vt 0.000000 0.000000
vt 0.000000 0.000000
vt 0.000000 0.000000
vt 0.955733 0.911466
vt 0.848864 1.000000
vt 0.848863 0.000000
vt 0.000000 0.000000
vt 0.000000 0.000000
vt 0.000000 0.000000
vt 0.000000 0.000000
vt 0.000000 0.000000
vt 0.000000 0.000000
vt 0.000000 0.000000
vt 0.000000 0.000000
vt 0.000000 0.000000
vt 0.000000 0.000000
vt 0.000000 0.000000
vt 0.955733 0.088534
vt 0.955733 0.088534
vt 0.000000 0.911466
vt 0.000000 0.697727
vt 1.000000 0.697727
vt 0.955733 0.911466
vt 0.000000 0.000000
vt 0.000000 0.000000
vt 0.000000 0.000000
vt 0.000000 0.000000
vt 0.000000 0.000000
vt 0.033865 0.182404
vt 0.026272 0.220321
vt 0.070026 0.340465
vt 1.000000 0.697727
vt 0.000000 1.000000
vt 0.000000 0.911466
vt 0.000000 0.000000
vt 0.000000 0.000000
vt 1.000000 0.302273
vt 0.000000 1.000000
vt 0.000000 0.000000
vt 0.000000 1.000000
vt 0.000000 0.000000
vt 0.000000 0.000000
vt 0.000000 0.000000
vt 0.000000 0.697727
vt 0.000000 0.000000
vt 0.000000 0.000000
vt 0.000000 0.000000
vt 0.000000 0.000000
vt 0.000000 0.000000
vt 0.000000 0.000000
vt 0.000000 1.000000
vt 0.848864 1.000000
vt 0.000000 0.000000
vt 0.848864 1.000000
vt 0.955733 0.911466
vt 0.848863 0.000000
vt 0.848864 0.000000
vt 0.000000 0.000000
vt 0.000000 0.000000
vt 0.000000 0.000000
vt 0.000000 0.000000
vt 0.000000 0.000000
vt 0.000000 0.000000
vt 0.000000 0.000000
vt 0.000000 0.000000
vt 0.955733 0.088534
vt 0.955733 0.088534
vt 0.000000 0.697727
vt 0.000000 0.911466
vt 0.955733 0.911466
vt 1.000000 0.697727
vt 0.000000 0.000000
vt 0.000000 0.000000
vt 0.000000 0.000000
vt 0.831653 0.315966
vt 0.859319 0.370184
vt 0.831288 0.699865
vt 1.000000 0.697727
vt 1.000000 0.302273
vt 0.000000 0.911466
vt 0.000000 1.000000
vt 0.000000 0.000000
vt 0.000000 0.000000
vt 1.000000 0.302273
vt 0.000000 1.000000
vt 0.000000 0.000000
vt 0.000000 0.000000
vt 0.000000 0.000000
vt 0.000978 0.015421
vt 0.000914 0.021256
vt 0.001271 0.011223
vt 0.001985 0.024549
vt 0.001270 0.010917
vt 0.001343 0.011372
vt 0.002492 0.019123
vt 0.002688 0.026459
vt 0.022586 0.695057
vt 0.022081 0.729346
vt 0.023646 0.746342
vt 0.095894 0.752615
vt 0.831288 0.699865
vt 0.151766 0.382025
vt 0.850094 0.683443
vt 0.858390 0.645147
vt 0.831653 0.315966
vt 0.859319 0.370184
vt 0.851037 0.331605
vt 0.001271 0.011223
vt 0.000978 0.015421
vt 0.001985 0.024549
vt 0.000914 0.021256
vt 0.001343 0.011372
vt 0.001270 0.010917
vt 0.022586 0.695057
vt 0.026272 0.220321
vt 0.070026 0.340465
vt 0.002492 0.019123
vt 0.002688 0.026459
vt 0.023646 0.746342
vt 0.022081 0.729346
vt 0.850094 0.683443
vt 0.858390 0.645147
vt 0.095894 0.752615
vt 0.151766 0.382025
vt 0.033865 0.182404
vt 0.851037 0.331605
vt 0.000000 0.000000
vt 0.000000 0.000000
vt 0.000000 0.000000
vt 0.000000 0.000000
vt 0.000000 0.000000
vt 0.000000 0.000000
vt 0.000000 0.000000
vt 0.000000 0.000000
vt 0.000000 0.000000
vt 0.000000 0.697039
vt 0.000000 0.901284
vt 0.000000 0.996542
vt 0.000000 1.000000
vt 0.847541 0.003458
vt 0.848520 0.996542
vt 0.950642 0.901284
vt 0.998271 0.697039
vt 0.998271 0.302961
vt 0.950642 0.098716
vt 0.000000 0.000000
vt 0.000000 0.000000
vt 0.000000 0.000000
vt 0.000000 0.000000
vt 0.000000 0.000000
vt 0.000000 0.000000
vt 0.000000 0.000000
vt 0.000000 0.000000
vt 0.000000 0.000000
vt 0.000000 0.000000
vt 0.000000 0.000000
vt 0.000000 0.000000
vt 0.000000 0.697039
vt 0.000000 0.901284
vt 0.000000 0.996542
vt 0.000000 1.000000
vt 0.847541 0.003458
vt 0.848520 0.996542
vt 0.950642 0.901284
vt 0.998271 0.697039
vt 0.998271 0.302961
vt 0.950642 0.098716
vt 0.000000 0.000000
vt 0.000000 0.000000
vt 0.000000 0.000000
vn 0.0000 0.0000 1.0000
vn 1.0000 0.0000 0.0000
vn 0.0000 -1.0000 0.0000
vn 0.3827 0.9239 0.0000
vn -0.3827 0.9239 0.0000
vn -0.3827 -0.9239 0.0000
vn 0.0000 1.0000 0.0000
vn -1.0000 0.0000 0.0000
vn -0.9239 -0.3827 0.0000
vn 0.9239 0.3827 0.0000
vn 0.9239 -0.3827 0.0000
vn 0.0000 0.0000 -1.0000
vn 0.3827 -0.9239 0.0000
vn -0.9239 0.3827 0.0000
vn 0.3827 0.0000 -0.9239
vn 0.9239 0.0000 -0.3827
vn 0.0000 0.3827 -0.9239
vn 0.0000 0.9239 -0.3827
vn -0.8536 0.3536 -0.3827
vn -0.3536 0.1464 -0.9239
vn -0.3536 0.8536 -0.3827
vn -0.1464 0.3536 -0.9239
vn -0.3536 -0.8536 -0.3827
vn -0.1464 -0.3536 -0.9239
vn -0.8536 -0.3536 -0.3827
vn -0.3536 -0.1464 -0.9239
vn 0.8536 -0.3536 -0.3827
vn 0.3536 -0.1464 -0.9239
vn 0.3536 -0.8536 -0.3827
vn 0.1464 -0.3536 -0.9239
vn 0.0000 -0.9239 -0.3827
vn 0.0000 -0.3827 -0.9239
vn -0.9239 0.0000 -0.3827
vn -0.3827 0.0000 -0.9239
vn 0.3536 0.8536 -0.3827
vn 0.1464 0.3536 -0.9239
vn 0.8536 0.3536 -0.3827
vn 0.3536 0.1464 -0.9239
usemtl Material.003
s off
f 11/1/1 10/2/1 13/3/1
f 17/4/2 25/5/2 2/6/2
f 5/7/3 52/8/3 19/9/3
f 24/10/4 88/11/4 23/12/4
f 13/3/3 67/13/3 1/14/3
f 9/15/5 47/16/5 8/17/5
f 15/18/6 73/19/6 13/3/6
f 8/17/7 71/20/7 11/1/7
f 20/21/8 43/22/8 7/23/8
f 37/24/8 39/25/8 38/26/8
f 19/9/6 50/27/6 21/28/6
f 21/28/9 56/29/9 20/21/9
f 22/30/10 91/31/10 24/10/10
f 11/1/5 85/32/5 12/33/5
f 18/34/11 58/35/11 17/4/11
f 14/36/9 76/37/9 15/18/9
f 3/38/2 94/39/2 22/30/2
f 4/40/7 34/41/7 6/42/7
f 44/43/12 26/44/12 40/45/12
f 10/2/8 79/46/8 14/36/8
f 16/47/13 61/48/13 18/34/13
f 7/23/14 41/49/14 9/15/14
f 23/12/7 31/50/7 4/40/7
f 12/33/14 82/51/14 10/2/14
f 1/14/3 64/52/3 16/47/3
f 2/6/2 29/53/2 3/38/2
f 97/54/1 102/55/1 103/56/1
f 119/57/8 111/58/8 98/59/8
f 140/60/3 5/7/3 113/61/3
f 176/62/5 118/63/5 117/64/5
f 155/65/3 107/66/3 97/54/3
f 135/67/4 103/56/4 102/55/4
f 161/68/13 109/69/13 107/66/13
f 159/70/7 102/55/7 105/71/7
f 131/72/2 114/73/2 101/74/2
f 138/75/13 113/61/13 115/76/13
f 144/77/11 115/76/11 114/73/11
f 179/78/14 116/79/14 118/63/14
f 173/80/4 105/71/4 106/81/4
f 146/82/9 112/83/9 111/58/9
f 164/84/11 108/85/11 109/69/11
f 182/86/8 99/87/8 116/79/8
f 34/41/7 100/88/7 6/42/7
f 158/89/12 171/90/12 162/91/12
f 167/92/2 104/93/2 108/85/2
f 149/94/6 110/95/6 112/83/6
f 129/96/10 101/74/10 103/56/10
f 125/97/7 117/64/7 100/88/7
f 170/98/10 106/81/10 104/93/10
f 152/99/3 97/54/3 110/95/3
f 123/100/8 98/59/8 99/87/8
f 23/12/1 4/40/1 21/28/1
f 4/40/1 6/42/1 19/9/1
f 6/42/1 5/7/1 19/9/1
f 4/40/1 19/9/1 21/28/1
f 22/30/1 24/10/1 23/12/1
f 17/4/1 2/6/1 9/15/1
f 2/6/1 3/38/1 20/21/1
f 20/21/1 3/38/1 21/28/1
f 3/38/1 22/30/1 21/28/1
f 22/30/1 23/12/1 21/28/1
f 16/47/1 18/34/1 17/4/1
f 15/18/1 13/3/1 14/36/1
f 13/3/1 1/14/1 8/17/1
f 1/14/1 16/47/1 9/15/1
f 16/47/1 17/4/1 9/15/1
f 2/6/1 20/21/1 7/23/1
f 2/6/1 7/23/1 9/15/1
f 13/3/1 8/17/1 11/1/1
f 8/17/1 1/14/1 9/15/1
f 10/2/1 14/36/1 13/3/1
f 11/1/1 12/33/1 10/2/1
f 17/4/2 58/35/2 25/5/2
f 5/7/3 38/26/3 52/8/3
f 24/10/4 91/31/4 88/11/4
f 13/3/3 73/19/3 67/13/3
f 9/15/5 41/49/5 47/16/5
f 15/18/6 76/37/6 73/19/6
f 8/17/7 47/16/7 71/20/7
f 20/21/8 56/29/8 43/22/8
f 38/26/8 5/7/8 6/42/8
f 6/42/8 34/41/8 38/26/8
f 34/41/8 36/101/8 35/102/8
f 38/26/8 34/41/8 37/24/8
f 35/102/8 37/24/8 34/41/8
f 19/9/6 52/8/6 50/27/6
f 21/28/9 50/27/9 56/29/9
f 22/30/10 94/39/10 91/31/10
f 11/1/5 71/20/5 85/32/5
f 18/34/11 61/48/11 58/35/11
f 14/36/9 79/46/9 76/37/9
f 3/38/2 29/53/2 94/39/2
f 4/40/7 31/50/7 34/41/7
f 35/102/12 32/103/12 53/104/12
f 32/103/12 89/105/12 49/106/12
f 35/102/12 53/104/12 37/24/12
f 89/105/12 92/107/12 95/108/12
f 28/109/12 26/44/12 55/110/12
f 26/44/12 59/111/12 40/45/12
f 28/109/12 55/110/12 49/106/12
f 89/105/12 95/108/12 49/106/12
f 95/108/12 28/109/12 49/106/12
f 53/104/12 32/103/12 49/106/12
f 55/110/12 26/44/12 44/43/12
f 59/111/12 62/112/12 65/113/12
f 68/114/12 74/115/12 46/116/12
f 74/115/12 77/117/12 80/118/12
f 46/116/12 74/115/12 70/119/12
f 59/111/12 65/113/12 40/45/12
f 65/113/12 68/114/12 40/45/12
f 80/118/12 83/120/12 74/115/12
f 83/120/12 86/121/12 70/119/12
f 83/120/12 70/119/12 74/115/12
f 68/114/12 46/116/12 40/45/12
f 10/2/8 82/51/8 79/46/8
f 16/47/13 64/52/13 61/48/13
f 7/23/14 43/22/14 41/49/14
f 23/12/7 88/11/7 31/50/7
f 12/33/14 85/32/14 82/51/14
f 1/14/3 67/13/3 64/52/3
f 2/6/2 25/5/2 29/53/2
f 6/42/1 100/88/1 113/61/1
f 100/88/1 117/64/1 115/76/1
f 6/42/1 113/61/1 5/7/1
f 117/64/1 118/63/1 116/79/1
f 99/87/1 98/59/1 101/74/1
f 98/59/1 111/58/1 103/56/1
f 99/87/1 101/74/1 114/73/1
f 117/64/1 116/79/1 115/76/1
f 116/79/1 99/87/1 115/76/1
f 113/61/1 100/88/1 115/76/1
f 101/74/1 98/59/1 103/56/1
f 111/58/1 112/83/1 110/95/1
f 97/54/1 107/66/1 102/55/1
f 107/66/1 109/69/1 108/85/1
f 111/58/1 110/95/1 103/56/1
f 110/95/1 97/54/1 103/56/1
f 114/73/1 115/76/1 99/87/1
f 107/66/1 108/85/1 105/71/1
f 102/55/1 107/66/1 105/71/1
f 108/85/1 104/93/1 105/71/1
f 104/93/1 106/81/1 105/71/1
f 119/57/8 146/82/8 111/58/8
f 140/60/3 38/26/3 5/7/3
f 176/62/5 179/78/5 118/63/5
f 155/65/3 161/68/3 107/66/3
f 135/67/4 129/96/4 103/56/4
f 161/68/13 164/84/13 109/69/13
f 159/70/7 135/67/7 102/55/7
f 131/72/2 144/77/2 114/73/2
f 138/75/13 140/60/13 113/61/13
f 144/77/11 138/75/11 115/76/11
f 179/78/14 182/86/14 116/79/14
f 173/80/4 159/70/4 105/71/4
f 146/82/9 149/94/9 112/83/9
f 164/84/11 167/92/11 108/85/11
f 182/86/8 123/100/8 99/87/8
f 34/41/7 125/97/7 100/88/7
f 177/122/12 126/123/12 137/124/12
f 126/123/12 35/102/12 141/125/12
f 35/102/12 37/24/12 141/125/12
f 126/123/12 141/125/12 137/124/12
f 183/126/12 180/127/12 177/122/12
f 147/128/12 120/129/12 128/130/12
f 120/129/12 122/131/12 143/132/12
f 143/132/12 122/131/12 137/124/12
f 122/131/12 183/126/12 137/124/12
f 183/126/12 177/122/12 137/124/12
f 153/133/12 150/134/12 147/128/12
f 165/135/12 162/91/12 168/136/12
f 162/91/12 156/137/12 134/138/12
f 156/137/12 153/133/12 128/130/12
f 153/133/12 147/128/12 128/130/12
f 120/129/12 143/132/12 132/139/12
f 120/129/12 132/139/12 128/130/12
f 162/91/12 134/138/12 158/89/12
f 134/138/12 156/137/12 128/130/12
f 171/90/12 168/136/12 162/91/12
f 158/89/12 174/140/12 171/90/12
f 167/92/2 170/98/2 104/93/2
f 149/94/6 152/99/6 110/95/6
f 129/96/10 131/72/10 101/74/10
f 125/97/7 176/62/7 117/64/7
f 170/98/10 173/80/10 106/81/10
f 152/99/3 155/65/3 97/54/3
f 123/100/8 119/57/8 98/59/8
usemtl Material.005
f 28/109/15 27/141/15 26/44/15
f 30/142/16 25/5/16 27/141/16
f 35/102/17 33/143/17 32/103/17
f 36/101/18 31/50/18 33/143/18
f 41/49/19 45/144/19 42/145/19
f 42/145/20 44/43/20 40/45/20
f 41/49/21 48/146/21 47/16/21
f 42/145/22 46/116/22 48/146/22
f 50/27/23 54/147/23 51/148/23
f 51/148/24 53/104/24 49/106/24
f 50/27/25 57/149/25 56/29/25
f 51/148/26 55/110/26 57/149/26
f 25/5/16 60/150/16 27/141/16
f 27/141/15 59/111/15 26/44/15
f 58/35/27 63/151/27 60/150/27
f 60/150/28 62/112/28 59/111/28
f 64/52/29 63/151/29 61/48/29
f 66/152/30 62/112/30 63/151/30
f 67/13/31 66/152/31 64/52/31
f 69/153/32 65/113/32 66/152/32
f 56/29/33 45/144/33 43/22/33
f 57/149/34 44/43/34 45/144/34
f 47/16/18 72/154/18 71/20/18
f 48/146/17 70/119/17 72/154/17
f 67/13/31 75/155/31 69/153/31
f 69/153/32 74/115/32 68/114/32
f 73/19/23 78/156/23 75/155/23
f 75/155/24 77/117/24 74/115/24
f 79/46/25 78/156/25 76/37/25
f 81/157/26 77/117/26 78/156/26
f 82/51/33 81/157/33 79/46/33
f 84/158/34 80/118/34 81/157/34
f 82/51/19 87/159/19 84/158/19
f 84/158/20 86/121/20 83/120/20
f 71/20/21 87/159/21 85/32/21
f 72/154/22 86/121/22 87/159/22
f 31/50/18 90/160/18 33/143/18
f 33/143/17 89/105/17 32/103/17
f 88/11/35 93/161/35 90/160/35
f 90/160/36 92/107/36 89/105/36
f 94/39/37 93/161/37 91/31/37
f 96/162/38 92/107/38 93/161/38
f 29/53/16 96/162/16 94/39/16
f 30/142/15 95/108/15 96/162/15
f 52/8/31 39/25/31 54/147/31
f 54/147/32 37/24/32 53/104/32
f 121/163/34 122/131/34 120/129/34
f 119/57/33 124/164/33 121/163/33
f 127/165/17 35/102/17 126/123/17
f 125/97/18 36/101/18 127/165/18
f 129/96/37 133/166/37 131/72/37
f 130/167/38 132/139/38 133/166/38
f 136/168/35 129/96/35 135/67/35
f 134/138/36 130/167/36 136/168/36
f 138/75/29 142/169/29 140/60/29
f 139/170/30 141/125/30 142/169/30
f 145/171/27 138/75/27 144/77/27
f 143/132/28 139/170/28 145/171/28
f 119/57/33 148/172/33 146/82/33
f 121/163/34 147/128/34 148/172/34
f 146/82/25 151/173/25 149/94/25
f 148/172/26 150/134/26 151/173/26
f 151/173/23 152/99/23 149/94/23
f 150/134/24 154/174/24 151/173/24
f 154/174/31 155/65/31 152/99/31
f 153/133/32 157/175/32 154/174/32
f 131/72/16 145/171/16 144/77/16
f 133/166/15 143/132/15 145/171/15
f 160/176/18 135/67/18 159/70/18
f 158/89/17 136/168/17 160/176/17
f 155/65/31 163/177/31 161/68/31
f 157/175/32 162/91/32 163/177/32
f 161/68/29 166/178/29 164/84/29
f 163/177/30 165/135/30 166/178/30
f 166/178/27 167/92/27 164/84/27
f 165/135/28 169/179/28 166/178/28
f 169/179/16 170/98/16 167/92/16
f 168/136/15 172/180/15 169/179/15
f 170/98/37 175/181/37 173/80/37
f 172/180/38 174/140/38 175/181/38
f 175/181/35 159/70/35 173/80/35
f 174/140/36 160/176/36 175/181/36
f 125/97/18 178/182/18 176/62/18
f 127/165/17 177/122/17 178/182/17
f 176/62/21 181/183/21 179/78/21
f 178/182/22 180/127/22 181/183/22
f 181/183/19 182/86/19 179/78/19
f 180/127/20 184/184/20 181/183/20
f 184/184/33 123/100/33 182/86/33
f 183/126/34 124/164/34 184/184/34
f 140/60/31 39/25/31 38/26/31
f 142/169/32 37/24/32 39/25/32
f 28/109/15 30/142/15 27/141/15
f 30/142/16 29/53/16 25/5/16
f 35/102/17 36/101/17 33/143/17
f 36/101/18 34/41/18 31/50/18
f 41/49/19 43/22/19 45/144/19
f 42/145/20 45/144/20 44/43/20
f 41/49/21 42/145/21 48/146/21
f 42/145/22 40/45/22 46/116/22
f 50/27/23 52/8/23 54/147/23
f 51/148/24 54/147/24 53/104/24
f 50/27/25 51/148/25 57/149/25
f 51/148/26 49/106/26 55/110/26
f 25/5/16 58/35/16 60/150/16
f 27/141/15 60/150/15 59/111/15
f 58/35/27 61/48/27 63/151/27
f 60/150/28 63/151/28 62/112/28
f 64/52/29 66/152/29 63/151/29
f 66/152/30 65/113/30 62/112/30
f 67/13/31 69/153/31 66/152/31
f 69/153/32 68/114/32 65/113/32
f 56/29/33 57/149/33 45/144/33
f 57/149/34 55/110/34 44/43/34
f 47/16/18 48/146/18 72/154/18
f 48/146/17 46/116/17 70/119/17
f 67/13/31 73/19/31 75/155/31
f 69/153/32 75/155/32 74/115/32
f 73/19/23 76/37/23 78/156/23
f 75/155/24 78/156/24 77/117/24
f 79/46/25 81/157/25 78/156/25
f 81/157/26 80/118/26 77/117/26
f 82/51/33 84/158/33 81/157/33
f 84/158/34 83/120/34 80/118/34
f 82/51/19 85/32/19 87/159/19
f 84/158/20 87/159/20 86/121/20
f 71/20/21 72/154/21 87/159/21
f 72/154/22 70/119/22 86/121/22
f 31/50/18 88/11/18 90/160/18
f 33/143/17 90/160/17 89/105/17
f 88/11/35 91/31/35 93/161/35
f 90/160/36 93/161/36 92/107/36
f 94/39/37 96/162/37 93/161/37
f 96/162/38 95/108/38 92/107/38
f 29/53/16 30/142/16 96/162/16
f 30/142/15 28/109/15 95/108/15
f 52/8/31 38/26/31 39/25/31
f 54/147/32 39/25/32 37/24/32
f 121/163/34 124/164/34 122/131/34
f 119/57/33 123/100/33 124/164/33
f 127/165/17 36/101/17 35/102/17
f 125/97/18 34/41/18 36/101/18
f 129/96/37 130/167/37 133/166/37
f 130/167/38 128/130/38 132/139/38
f 136/168/35 130/167/35 129/96/35
f 134/138/36 128/130/36 130/167/36
f 138/75/29 139/170/29 142/169/29
f 139/170/30 137/124/30 141/125/30
f 145/171/27 139/170/27 138/75/27
f 143/132/28 137/124/28 139/170/28
f 119/57/33 121/163/33 148/172/33
f 121/163/34 120/129/34 147/128/34
f 146/82/25 148/172/25 151/173/25
f 148/172/26 147/128/26 150/134/26
f 151/173/23 154/174/23 152/99/23
f 150/134/24 153/133/24 154/174/24
f 154/174/31 157/175/31 155/65/31
f 153/133/32 156/137/32 157/175/32
f 131/72/16 133/166/16 145/171/16
f 133/166/15 132/139/15 143/132/15
f 160/176/18 136/168/18 135/67/18
f 158/89/17 134/138/17 136/168/17
f 155/65/31 157/175/31 163/177/31
f 157/175/32 156/137/32 162/91/32
f 161/68/29 163/177/29 166/178/29
f 163/177/30 162/91/30 165/135/30
f 166/178/27 169/179/27 167/92/27
f 165/135/28 168/136/28 169/179/28
f 169/179/16 172/180/16 170/98/16
f 168/136/15 171/90/15 172/180/15
f 170/98/37 172/180/37 175/181/37
f 172/180/38 171/90/38 174/140/38
f 175/181/35 160/176/35 159/70/35
f 174/140/36 158/89/36 160/176/36
f 125/97/18 127/165/18 178/182/18
f 127/165/17 126/123/17 177/122/17
f 176/62/21 178/182/21 181/183/21
f 178/182/22 177/122/22 180/127/22
f 181/183/19 184/184/19 182/86/19
f 180/127/20 183/126/20 184/184/20
f 184/184/33 124/164/33 123/100/33
f 183/126/34 122/131/34 124/164/34
f 140/60/31 142/169/31 39/25/31
f 142/169/32 141/125/32 37/24/32
