# Blender v3.4.1 OBJ File: 'Pacmaze.blend'
# www.blender.org
mtllib 100_LeftL.mtl
o LeftL_Plane.861
v 1.000000 2.000000 0.000000
v -1.000000 4.000000 0.000000
v -0.697727 -1.000000 0.000000
v -1.000000 -0.697727 0.000000
v -0.911466 -0.911466 0.000000
v 1.000000 -0.697727 0.000000
v 0.697727 -1.000000 0.000000
v 0.911466 -0.911466 0.000000
v -1.000000 1.697727 0.000000
v -1.302273 2.000000 0.000000
v -1.088534 1.911466 0.000000
v 1.000000 3.697727 0.000000
v 0.697727 4.000000 0.000000
v 0.911466 3.911467 0.000000
v -2.697727 2.000000 0.000000
v -3.000000 2.302273 0.000000
v -2.911467 2.088533 0.000000
v -2.697727 4.000000 0.000000
v -3.000000 3.697727 0.000000
v -2.911467 3.911467 0.000000
v -0.851136 2.148864 3.000000
v -1.088534 1.911466 2.689826
v -1.019002 1.980998 2.909152
v -1.000000 1.697727 2.689826
v -0.689826 1.759424 3.000000
v -0.909152 1.715798 2.909152
v -1.240575 2.310174 3.000000
v -1.302273 2.000000 2.689826
v -1.284202 2.090848 2.909152
v -1.000000 -0.697727 2.689826
v -0.689826 -0.636030 3.000000
v -0.909152 -0.679656 2.909152
v -0.911466 -0.911466 2.689826
v -0.674069 -0.674069 3.000000
v -0.841934 -0.841934 2.909152
v -0.697727 -1.000000 2.689826
v -0.636030 -0.689826 3.000000
v -0.679656 -0.909152 2.909152
v 0.697727 -1.000000 2.689826
v 0.636030 -0.689826 3.000000
v 0.679656 -0.909152 2.909152
v 0.911466 -0.911466 2.689826
v 0.674069 -0.674069 3.000000
v 0.841934 -0.841934 2.909152
v 1.000000 -0.697727 2.689826
v 0.689826 -0.636029 3.000000
v 0.909152 -0.679656 2.909152
v 1.000000 2.000000 2.689826
v 0.689826 2.000000 3.000000
v 0.909152 2.000000 2.909152
v 1.000000 3.697727 2.689826
v 0.689826 3.636029 3.000000
v 0.909152 3.679656 2.909152
v 0.911466 3.911467 2.689826
v 0.674069 3.674069 3.000000
v 0.841934 3.841934 2.909152
v 0.697727 4.000000 2.689826
v 0.636030 3.689826 3.000000
v 0.679656 3.909152 2.909152
v -1.000000 4.000000 2.689826
v -1.000000 3.689826 3.000000
v -1.000000 3.909152 2.909152
v -2.636030 2.310174 3.000000
v -2.697727 2.000000 2.689826
v -2.679656 2.090848 2.909152
v -2.697727 4.000000 2.689826
v -2.636030 3.689826 3.000000
v -2.679656 3.909152 2.909152
v -2.911467 3.911467 2.689826
v -2.674069 3.674070 3.000000
v -2.841934 3.841935 2.909152
v -3.000000 3.697727 2.689826
v -2.689826 3.636030 3.000000
v -2.909152 3.679656 2.909152
v -3.000000 2.302273 2.689826
v -2.689826 2.363970 3.000000
v -2.909152 2.320344 2.909152
v -2.911467 2.088533 2.689826
v -2.674070 2.325931 3.000000
v -2.841935 2.158066 2.909152
vt -0.151136 1.000000
vt 0.000000 1.000000
vt 0.000000 1.000000
vt -0.044267 0.970489
vt -0.151136 1.000000
vt 0.000000 1.000000
vt 0.000000 1.000000
vt 0.000000 1.000000
vt 0.955733 0.029511
vt 0.848863 0.000000
vt 0.848864 0.000000
vt 0.044267 0.029511
vt 0.000000 0.100758
vt 0.000000 0.100758
vt 1.000000 0.100758
vt 0.955733 0.029511
vt 0.000000 1.000000
vt 0.000000 1.000000
vt 1.000000 1.000000
vt 1.000000 0.100758
vt 0.177808 0.907664
vt 0.205747 0.825694
vt 0.867257 0.914015
vt 0.000000 1.000000
vt 0.000000 1.000000
vt 0.000000 1.000000
vt 1.000000 1.000000
vt 1.000000 1.000000
vt 0.000000 0.899242
vt 0.000000 0.899242
vt 0.000000 1.000000
vt 0.955733 1.000000
vt 1.000000 1.000000
vt 0.000000 1.000000
vt 0.000000 1.000000
vt 0.848864 1.000000
vt 0.955733 1.000000
vt 0.151136 0.000000
vt 0.044267 0.029511
vt 0.848863 1.000000
vt 0.151136 0.000000
vt 0.000000 1.000000
vt -0.044267 0.970489
vt 0.861485 0.986738
vt 0.853099 0.987350
vt 0.834876 0.986954
vt 0.122887 0.983097
vt 0.022335 0.994902
vt 0.060938 0.965239
vt 0.021470 0.995157
vt 0.022233 0.995060
vt 0.025005 0.997852
vt 0.025923 0.997680
vt 0.024908 0.997910
vt 0.840954 0.098704
vt 0.849035 0.110975
vt 0.822004 0.093132
vt 0.184394 0.091061
vt 0.157454 0.108644
vt 0.165241 0.096555
vt 0.000000 0.899242
vt -0.044267 0.970489
vt -0.151136 1.000000
vt 0.001729 0.100987
vt 0.049358 0.032905
vt 0.151480 0.001153
vt 0.950642 0.032905
vt 0.848520 0.001153
vt 0.998271 0.100987
vt 1.000000 1.000000
vt 0.998271 1.000000
vt 0.950642 1.000000
vt 0.848520 1.000000
vt 0.000000 1.000000
vt -0.000979 1.000000
vt 0.000000 1.000000
vt 0.000000 1.000000
vt 0.000000 1.000000
vt 0.000000 1.000000
vt 0.000000 1.000000
vn 0.0000 0.0000 -1.0000
vn -0.3827 -0.9239 0.0000
vn 0.0000 1.0000 0.0000
vn 0.3827 -0.9239 0.0000
vn -0.9239 -0.3827 0.0000
vn 0.9239 -0.3827 0.0000
vn 1.0000 0.0000 0.0000
vn 0.0000 0.0000 1.0000
vn -0.9239 0.3827 0.0000
vn -1.0000 0.0000 0.0000
vn 0.9239 0.3827 0.0000
vn 0.0000 -1.0000 0.0000
vn 0.3827 0.9239 0.0000
vn -0.3827 0.9239 0.0000
vn -0.8536 -0.3536 0.3827
vn -0.3536 -0.1464 0.9239
vn -0.3536 -0.8536 0.3827
vn -0.1464 -0.3536 0.9239
vn -0.9239 0.0000 0.3827
vn -0.3827 0.0000 0.9239
vn 0.0000 -0.9239 0.3827
vn 0.0000 -0.3827 0.9239
vn 0.3536 -0.8536 0.3827
vn 0.1464 -0.3536 0.9239
vn 0.8536 -0.3536 0.3827
vn 0.3536 -0.1464 0.9239
vn 0.9239 0.0000 0.3827
vn 0.3827 0.0000 0.9239
vn 0.8536 0.3536 0.3827
vn 0.3536 0.1464 0.9239
vn 0.3536 0.8536 0.3827
vn 0.1464 0.3536 0.9239
vn 0.0000 0.9239 0.3827
vn 0.0000 0.3827 0.9239
vn -0.3536 0.8536 0.3827
vn -0.1464 0.3536 0.9239
vn -0.8536 0.3536 0.3827
vn -0.3536 0.1464 0.9239
usemtl Material.003
s off
f 10/1/1 15/2/1 16/3/1
f 11/4/2 28/5/2 10/1/2
f 18/6/3 60/7/3 2/8/3
f 8/9/4 39/10/4 7/11/4
f 5/12/5 30/13/5 4/14/5
f 6/15/6 42/16/6 8/9/6
f 15/2/2 78/17/2 17/18/2
f 1/19/7 45/20/7 6/15/7
f 21/21/8 25/22/8 49/23/8
f 19/24/9 69/25/9 20/26/9
f 12/27/7 48/28/7 1/19/7
f 4/14/10 24/29/10 9/30/10
f 16/3/10 72/31/10 19/24/10
f 14/32/11 51/33/11 12/27/11
f 10/1/12 64/34/12 15/2/12
f 17/18/5 75/35/5 16/3/5
f 13/36/13 54/37/13 14/32/13
f 3/38/2 33/39/2 5/12/2
f 2/8/3 57/40/3 13/36/3
f 7/11/12 36/41/12 3/38/12
f 20/26/14 66/42/14 18/6/14
f 9/30/5 22/43/5 11/4/5
f 12/27/1 1/19/1 11/4/1
f 1/19/1 6/15/1 9/30/1
f 9/30/1 6/15/1 4/14/1
f 6/15/1 8/9/1 7/11/1
f 7/11/1 3/38/1 4/14/1
f 3/38/1 5/12/1 4/14/1
f 7/11/1 4/14/1 6/15/1
f 13/36/1 14/32/1 12/27/1
f 20/26/1 18/6/1 19/24/1
f 18/6/1 2/8/1 10/1/1
f 16/3/1 18/6/1 10/1/1
f 2/8/1 13/36/1 11/4/1
f 13/36/1 12/27/1 11/4/1
f 1/19/1 9/30/1 11/4/1
f 18/6/1 16/3/1 19/24/1
f 15/2/1 17/18/1 16/3/1
f 11/4/1 10/1/1 2/8/1
f 11/4/2 22/43/2 28/5/2
f 18/6/3 66/42/3 60/7/3
f 8/9/4 42/16/4 39/10/4
f 5/12/5 33/39/5 30/13/5
f 6/15/6 45/20/6 42/16/6
f 15/2/2 64/34/2 78/17/2
f 1/19/7 48/28/7 45/20/7
f 49/23/8 52/44/8 21/21/8
f 52/44/8 55/45/8 58/46/8
f 21/21/8 52/44/8 58/46/8
f 58/46/8 61/47/8 21/21/8
f 61/47/8 67/48/8 27/49/8
f 67/48/8 70/50/8 73/51/8
f 27/49/8 67/48/8 63/52/8
f 73/51/8 76/53/8 67/48/8
f 76/53/8 79/54/8 63/52/8
f 76/53/8 63/52/8 67/48/8
f 43/55/8 46/56/8 40/57/8
f 46/56/8 49/23/8 25/22/8
f 37/58/8 40/57/8 46/56/8
f 31/59/8 34/60/8 37/58/8
f 25/22/8 31/59/8 46/56/8
f 31/59/8 37/58/8 46/56/8
f 61/47/8 27/49/8 21/21/8
f 19/24/9 72/31/9 69/25/9
f 12/27/7 51/33/7 48/28/7
f 4/14/10 30/13/10 24/29/10
f 16/3/10 75/35/10 72/31/10
f 14/32/11 54/37/11 51/33/11
f 10/1/12 28/5/12 64/34/12
f 17/18/5 78/17/5 75/35/5
f 13/36/13 57/40/13 54/37/13
f 3/38/2 36/41/2 33/39/2
f 2/8/3 60/7/3 57/40/3
f 7/11/12 39/10/12 36/41/12
f 20/26/14 69/25/14 66/42/14
f 9/30/5 24/29/5 22/43/5
usemtl Material.005
f 22/43/15 26/61/15 23/62/15
f 23/62/16 25/22/16 21/21/16
f 22/43/17 29/63/17 28/5/17
f 23/62/18 27/49/18 29/63/18
f 24/29/19 32/64/19 26/61/19
f 26/61/20 31/59/20 25/22/20
f 30/13/15 35/65/15 32/64/15
f 32/64/16 34/60/16 31/59/16
f 36/41/17 35/65/17 33/39/17
f 38/66/18 34/60/18 35/65/18
f 39/10/21 38/66/21 36/41/21
f 38/66/22 40/57/22 37/58/22
f 39/10/23 44/67/23 41/68/23
f 41/68/24 43/55/24 40/57/24
f 45/20/25 44/67/25 42/16/25
f 47/69/26 43/55/26 44/67/26
f 48/28/27 47/69/27 45/20/27
f 50/70/28 46/56/28 47/69/28
f 48/28/27 53/71/27 50/70/27
f 50/70/28 52/44/28 49/23/28
f 51/33/29 56/72/29 53/71/29
f 53/71/30 55/45/30 52/44/30
f 57/40/31 56/72/31 54/37/31
f 59/73/32 55/45/32 56/72/32
f 60/7/33 59/73/33 57/40/33
f 62/74/34 58/46/34 59/73/34
f 28/5/21 65/75/21 64/34/21
f 29/63/22 63/52/22 65/75/22
f 60/7/33 68/76/33 62/74/33
f 62/74/34 67/48/34 61/47/34
f 66/42/35 71/77/35 68/76/35
f 68/76/36 70/50/36 67/48/36
f 72/31/37 71/77/37 69/25/37
f 74/78/38 70/50/38 71/77/38
f 75/35/19 74/78/19 72/31/19
f 77/79/20 73/51/20 74/78/20
f 75/35/15 80/80/15 77/79/15
f 77/79/16 79/54/16 76/53/16
f 64/34/17 80/80/17 78/17/17
f 65/75/18 79/54/18 80/80/18
f 22/43/15 24/29/15 26/61/15
f 23/62/16 26/61/16 25/22/16
f 22/43/17 23/62/17 29/63/17
f 23/62/18 21/21/18 27/49/18
f 24/29/19 30/13/19 32/64/19
f 26/61/20 32/64/20 31/59/20
f 30/13/15 33/39/15 35/65/15
f 32/64/16 35/65/16 34/60/16
f 36/41/17 38/66/17 35/65/17
f 38/66/18 37/58/18 34/60/18
f 39/10/21 41/68/21 38/66/21
f 38/66/22 41/68/22 40/57/22
f 39/10/23 42/16/23 44/67/23
f 41/68/24 44/67/24 43/55/24
f 45/20/25 47/69/25 44/67/25
f 47/69/26 46/56/26 43/55/26
f 48/28/27 50/70/27 47/69/27
f 50/70/28 49/23/28 46/56/28
f 48/28/27 51/33/27 53/71/27
f 50/70/28 53/71/28 52/44/28
f 51/33/29 54/37/29 56/72/29
f 53/71/30 56/72/30 55/45/30
f 57/40/31 59/73/31 56/72/31
f 59/73/32 58/46/32 55/45/32
f 60/7/33 62/74/33 59/73/33
f 62/74/34 61/47/34 58/46/34
f 28/5/21 29/63/21 65/75/21
f 29/63/22 27/49/22 63/52/22
f 60/7/33 66/42/33 68/76/33
f 62/74/34 68/76/34 67/48/34
f 66/42/35 69/25/35 71/77/35
f 68/76/36 71/77/36 70/50/36
f 72/31/37 74/78/37 71/77/37
f 74/78/38 73/51/38 70/50/38
f 75/35/19 77/79/19 74/78/19
f 77/79/20 76/53/20 73/51/20
f 75/35/15 78/17/15 80/80/15
f 77/79/16 80/80/16 79/54/16
f 64/34/17 65/75/17 80/80/17
f 65/75/18 63/52/18 79/54/18
