# Blender v3.4.1 OBJ File: 'Pacmaze.blend'
# www.blender.org
mtllib 100_RightL.mtl
o RightL_Plane.860
v -1.000000 2.000000 0.000000
v 1.000000 4.000000 0.000000
v -0.697727 -1.000000 0.000000
v -1.000000 -0.697727 0.000000
v -0.911466 -0.911466 0.000000
v 1.000000 -0.697727 0.000000
v 0.697727 -1.000000 0.000000
v 0.911466 -0.911466 0.000000
v 1.302273 2.000000 0.000000
v 1.000000 1.697727 0.000000
v 1.088534 1.911466 0.000000
v -1.000000 3.697727 0.000000
v -0.697727 4.000000 0.000000
v -0.911466 3.911467 0.000000
v 2.697727 2.000000 0.000000
v 3.000000 2.302273 0.000000
v 2.911467 2.088533 0.000000
v 2.697727 4.000000 0.000000
v 3.000000 3.697727 0.000000
v 2.911467 3.911467 0.000000
v 0.851136 2.148864 3.000000
v 1.088534 1.911466 2.689826
v 1.019002 1.980998 2.909152
v 1.302273 2.000000 2.689826
v 1.240575 2.310174 3.000000
v 1.284202 2.090848 2.909152
v 0.689826 1.759424 3.000000
v 1.000000 1.697727 2.689826
v 0.909152 1.715798 2.909152
v -0.689826 2.000000 3.000000
v -1.000000 2.000000 2.689826
v -0.909152 2.000000 2.909152
v -1.000000 -0.697727 2.689826
v -0.689826 -0.636029 3.000000
v -0.909152 -0.679656 2.909152
v -0.911466 -0.911466 2.689826
v -0.674069 -0.674069 3.000000
v -0.841934 -0.841934 2.909152
v -0.697727 -1.000000 2.689826
v -0.636030 -0.689826 3.000000
v -0.679656 -0.909152 2.909152
v 0.697727 -1.000000 2.689826
v 0.636030 -0.689826 3.000000
v 0.679656 -0.909152 2.909152
v 0.911466 -0.911466 2.689826
v 0.674069 -0.674069 3.000000
v 0.841934 -0.841934 2.909152
v 1.000000 -0.697727 2.689826
v 0.689826 -0.636030 3.000000
v 0.909152 -0.679656 2.909152
v -0.689826 3.636029 3.000000
v -1.000000 3.697727 2.689826
v -0.909152 3.679656 2.909152
v 1.000000 3.689826 3.000000
v 1.000000 4.000000 2.689826
v 1.000000 3.909152 2.909152
v -0.697727 4.000000 2.689826
v -0.636030 3.689826 3.000000
v -0.679656 3.909152 2.909152
v -0.911466 3.911467 2.689826
v -0.674069 3.674069 3.000000
v -0.841934 3.841934 2.909152
v 2.636030 3.689826 3.000000
v 2.697727 4.000000 2.689826
v 2.679656 3.909152 2.909152
v 2.697727 2.000000 2.689826
v 2.636030 2.310174 3.000000
v 2.679656 2.090848 2.909152
v 2.911467 2.088533 2.689826
v 2.674069 2.325930 3.000000
v 2.841934 2.158065 2.909152
v 3.000000 2.302273 2.689826
v 2.689826 2.363970 3.000000
v 2.909152 2.320344 2.909152
v 3.000000 3.697727 2.689826
v 2.689826 3.636030 3.000000
v 2.909152 3.679656 2.909152
v 2.911467 3.911467 2.689826
v 2.674070 3.674069 3.000000
v 2.841935 3.841934 2.909152
vt 1.000000 0.100758
vt 0.848864 0.000000
vt 0.000000 0.100758
vt 1.000000 1.000000
vt 1.000000 1.000000
vt 1.000000 1.000000
vt 0.151136 0.000000
vt 0.151136 0.000000
vt 1.000000 1.000000
vt 1.000000 1.000000
vt 1.000000 1.000000
vt 0.151136 1.000000
vt 1.000000 1.000000
vt 1.000000 1.000000
vt 0.955733 0.029511
vt 0.848863 0.000000
vt 0.044267 1.000000
vt 0.151136 1.000000
vt 0.955733 0.029511
vt 1.000000 0.100758
vt 0.000000 1.000000
vt 0.044267 1.000000
vt 0.132215 0.918041
vt 0.793905 0.882880
vt 0.788456 0.930736
vt 1.000000 1.000000
vt 1.000000 1.000000
vt 0.000000 1.000000
vt 0.000000 1.000000
vt 1.000000 1.000000
vt 1.000000 1.000000
vt 1.000000 1.000000
vt 1.000000 1.000000
vt 0.044267 0.029511
vt 0.000000 0.100758
vt 0.000000 1.000000
vt 1.000000 1.000000
vt 1.000000 1.000000
vt 1.000000 1.000000
vt 1.000000 1.000000
vt 0.044267 0.029511
vt 1.000000 1.000000
vt 1.000000 1.000000
vt 0.975229 0.994290
vt 0.872581 0.983444
vt 0.859427 0.964960
vt 0.164118 0.987769
vt 0.965757 0.995557
vt 0.145951 0.988148
vt 0.137542 0.987583
vt 0.151583 0.112631
vt 0.159647 0.100278
vt 0.178626 0.094763
vt 0.843853 0.112569
vt 0.976200 0.994551
vt 0.975327 0.994414
vt 0.966926 0.995567
vt 0.967472 0.995769
vt 0.816842 0.094197
vt 0.835990 0.099840
vt 1.000000 1.000000
vt 1.000000 1.000000
vt 1.000000 1.000000
vt 0.001729 0.100987
vt 0.000000 1.000000
vt 0.049358 0.032905
vt 0.151480 0.001153
vt 0.950642 0.032905
vt 0.848520 0.001153
vt 0.998271 0.101367
vt 0.001729 1.000000
vt 0.151480 1.000000
vt 1.000000 1.000000
vt 0.049358 1.000000
vt 1.000000 1.000000
vt 1.000000 1.000000
vt 1.000000 1.000000
vt 1.000000 1.000000
vt 1.000000 1.000000
vt 1.000000 1.000000
vn 0.0000 0.0000 -1.0000
vn 0.9239 -0.3827 0.0000
vn 0.0000 -1.0000 0.0000
vn 0.3827 -0.9239 0.0000
vn 0.0000 1.0000 0.0000
vn -0.3827 0.9239 0.0000
vn 1.0000 0.0000 0.0000
vn -0.9239 0.3827 0.0000
vn 0.0000 0.0000 1.0000
vn -1.0000 0.0000 0.0000
vn -0.9239 -0.3827 0.0000
vn 0.9239 0.3827 0.0000
vn -0.3827 -0.9239 0.0000
vn 0.3827 0.9239 0.0000
vn 0.3536 -0.8536 0.3827
vn 0.1464 -0.3536 0.9239
vn 0.8536 -0.3536 0.3827
vn 0.3536 -0.1464 0.9239
vn -0.9239 0.0000 0.3827
vn -0.3827 0.0000 0.9239
vn -0.8536 -0.3536 0.3827
vn -0.3536 -0.1464 0.9239
vn -0.3536 -0.8536 0.3827
vn -0.1464 -0.3536 0.9239
vn 0.0000 -0.9239 0.3827
vn 0.0000 -0.3827 0.9239
vn 0.9239 0.0000 0.3827
vn 0.3827 0.0000 0.9239
vn 0.0000 0.9239 0.3827
vn 0.0000 0.3827 0.9239
vn -0.3536 0.8536 0.3827
vn -0.1464 0.3536 0.9239
vn -0.8536 0.3536 0.3827
vn -0.3536 0.1464 0.9239
vn 0.8536 0.3536 0.3827
vn 0.3536 0.1464 0.9239
vn 0.3536 0.8536 0.3827
vn 0.1464 0.3536 0.9239
usemtl Material.003
s off
f 6/1/1 7/2/1 4/3/1
f 11/4/2 28/5/2 10/6/2
f 7/2/3 39/7/3 3/8/3
f 17/9/4 66/10/4 15/11/4
f 13/12/5 55/13/5 2/14/5
f 8/15/4 42/16/4 7/2/4
f 14/17/6 57/18/6 13/12/6
f 6/1/2 45/19/2 8/15/2
f 10/6/7 48/20/7 6/1/7
f 12/21/8 60/22/8 14/17/8
f 30/23/9 27/24/9 21/25/9
f 16/26/2 69/27/2 17/9/2
f 4/3/10 31/28/10 1/29/10
f 15/11/3 24/30/3 9/31/3
f 19/32/7 72/33/7 16/26/7
f 5/34/11 33/35/11 4/3/11
f 1/29/10 52/36/10 12/21/10
f 20/37/12 75/38/12 19/32/12
f 2/14/5 64/39/5 18/40/5
f 3/8/13 36/41/13 5/34/13
f 18/40/14 78/42/14 20/37/14
f 9/31/4 22/43/4 11/4/4
f 13/12/1 2/14/1 11/4/1
f 2/14/1 18/40/1 9/31/1
f 9/31/1 18/40/1 19/32/1
f 18/40/1 20/37/1 19/32/1
f 19/32/1 16/26/1 9/31/1
f 16/26/1 17/9/1 15/11/1
f 9/31/1 16/26/1 15/11/1
f 12/21/1 14/17/1 13/12/1
f 5/34/1 4/3/1 3/8/1
f 4/3/1 1/29/1 10/6/1
f 1/29/1 12/21/1 11/4/1
f 12/21/1 13/12/1 11/4/1
f 2/14/1 9/31/1 11/4/1
f 4/3/1 10/6/1 6/1/1
f 10/6/1 1/29/1 11/4/1
f 7/2/1 3/8/1 4/3/1
f 6/1/1 8/15/1 7/2/1
f 11/4/2 22/43/2 28/5/2
f 7/2/3 42/16/3 39/7/3
f 17/9/4 69/27/4 66/10/4
f 13/12/5 57/18/5 55/13/5
f 8/15/4 45/19/4 42/16/4
f 14/17/6 60/22/6 57/18/6
f 6/1/2 48/20/2 45/19/2
f 10/6/7 28/5/7 48/20/7
f 12/21/8 52/36/8 60/22/8
f 63/44/9 54/45/9 25/46/9
f 54/45/9 58/47/9 21/25/9
f 63/44/9 25/46/9 67/48/9
f 58/47/9 61/49/9 51/50/9
f 30/23/9 34/51/9 27/24/9
f 34/51/9 37/52/9 40/53/9
f 27/24/9 34/51/9 49/54/9
f 58/47/9 51/50/9 21/25/9
f 51/50/9 30/23/9 21/25/9
f 79/55/9 63/44/9 76/56/9
f 63/44/9 73/57/9 76/56/9
f 67/48/9 70/58/9 73/57/9
f 67/48/9 73/57/9 63/44/9
f 25/46/9 54/45/9 21/25/9
f 40/53/9 43/59/9 34/51/9
f 43/59/9 46/60/9 49/54/9
f 43/59/9 49/54/9 34/51/9
f 16/26/2 72/33/2 69/27/2
f 4/3/10 33/35/10 31/28/10
f 15/11/3 66/10/3 24/30/3
f 19/32/7 75/38/7 72/33/7
f 5/34/11 36/41/11 33/35/11
f 1/29/10 31/28/10 52/36/10
f 20/37/12 78/42/12 75/38/12
f 2/14/5 55/13/5 64/39/5
f 3/8/13 39/7/13 36/41/13
f 18/40/14 64/39/14 78/42/14
f 9/31/4 24/30/4 22/43/4
usemtl Material.005
f 22/43/15 26/61/15 23/62/15
f 23/62/16 25/46/16 21/25/16
f 22/43/17 29/63/17 28/5/17
f 23/62/18 27/24/18 29/63/18
f 31/28/19 35/64/19 32/65/19
f 32/65/20 34/51/20 30/23/20
f 33/35/21 38/66/21 35/64/21
f 35/64/22 37/52/22 34/51/22
f 39/7/23 38/66/23 36/41/23
f 41/67/24 37/52/24 38/66/24
f 42/16/25 41/67/25 39/7/25
f 41/67/26 43/59/26 40/53/26
f 42/16/15 47/68/15 44/69/15
f 44/69/16 46/60/16 43/59/16
f 48/20/17 47/68/17 45/19/17
f 50/70/18 46/60/18 47/68/18
f 28/5/27 50/70/27 48/20/27
f 29/63/28 49/54/28 50/70/28
f 31/28/19 53/71/19 52/36/19
f 32/65/20 51/50/20 53/71/20
f 55/13/29 59/72/29 56/73/29
f 56/73/30 58/47/30 54/45/30
f 57/18/31 62/74/31 59/72/31
f 59/72/32 61/49/32 58/47/32
f 52/36/33 62/74/33 60/22/33
f 53/71/34 61/49/34 62/74/34
f 55/13/29 65/75/29 64/39/29
f 56/73/30 63/44/30 65/75/30
f 24/30/25 68/76/25 26/61/25
f 26/61/26 67/48/26 25/46/26
f 66/10/15 71/77/15 68/76/15
f 68/76/16 70/58/16 67/48/16
f 72/33/17 71/77/17 69/27/17
f 74/78/18 70/58/18 71/77/18
f 75/38/27 74/78/27 72/33/27
f 77/79/28 73/57/28 74/78/28
f 75/38/35 80/80/35 77/79/35
f 77/79/36 79/55/36 76/56/36
f 64/39/37 80/80/37 78/42/37
f 65/75/38 79/55/38 80/80/38
f 22/43/15 24/30/15 26/61/15
f 23/62/16 26/61/16 25/46/16
f 22/43/17 23/62/17 29/63/17
f 23/62/18 21/25/18 27/24/18
f 31/28/19 33/35/19 35/64/19
f 32/65/20 35/64/20 34/51/20
f 33/35/21 36/41/21 38/66/21
f 35/64/22 38/66/22 37/52/22
f 39/7/23 41/67/23 38/66/23
f 41/67/24 40/53/24 37/52/24
f 42/16/25 44/69/25 41/67/25
f 41/67/26 44/69/26 43/59/26
f 42/16/15 45/19/15 47/68/15
f 44/69/16 47/68/16 46/60/16
f 48/20/17 50/70/17 47/68/17
f 50/70/18 49/54/18 46/60/18
f 28/5/27 29/63/27 50/70/27
f 29/63/28 27/24/28 49/54/28
f 31/28/19 32/65/19 53/71/19
f 32/65/20 30/23/20 51/50/20
f 55/13/29 57/18/29 59/72/29
f 56/73/30 59/72/30 58/47/30
f 57/18/31 60/22/31 62/74/31
f 59/72/32 62/74/32 61/49/32
f 52/36/33 53/71/33 62/74/33
f 53/71/34 51/50/34 61/49/34
f 55/13/29 56/73/29 65/75/29
f 56/73/30 54/45/30 63/44/30
f 24/30/25 66/10/25 68/76/25
f 26/61/26 68/76/26 67/48/26
f 66/10/15 69/27/15 71/77/15
f 68/76/16 71/77/16 70/58/16
f 72/33/17 74/78/17 71/77/17
f 74/78/18 73/57/18 70/58/18
f 75/38/27 77/79/27 74/78/27
f 77/79/28 76/56/28 73/57/28
f 75/38/35 78/42/35 80/80/35
f 77/79/36 80/80/36 79/55/36
f 64/39/37 65/75/37 80/80/37
f 65/75/38 63/44/38 79/55/38
