# Blender v3.4.1 OBJ File: 'Pacmaze.blend'
# www.blender.org
mtllib 100_T_Wall.mtl
o T_Wall_Plane.864
v -1.000000 4.000000 0.000000
v 1.000000 4.000000 0.000000
v -0.697727 -1.000000 0.000000
v -1.000000 -0.697727 0.000000
v -0.911466 -0.911466 0.000000
v 1.000000 -0.697727 0.000000
v 0.697727 -1.000000 0.000000
v 0.911466 -0.911466 0.000000
v -1.000000 1.697727 0.000000
v -1.302273 2.000000 0.000000
v -1.088534 1.911466 0.000000
v 1.302273 2.000000 0.000000
v 1.000000 1.697727 0.000000
v 1.088534 1.911466 0.000000
v -3.697727 2.000000 0.000000
v -4.000000 2.302273 0.000000
v -3.911467 2.088533 0.000000
v -3.697727 4.000000 0.000000
v -4.000000 3.697727 0.000000
v -3.911467 3.911467 0.000000
v 3.697727 2.000000 0.000000
v 4.000000 2.302273 0.000000
v 3.911467 2.088533 0.000000
v 3.697727 4.000000 0.000000
v 4.000000 3.697727 0.000000
v 3.911467 3.911467 0.000000
v 1.000000 3.689826 3.000000
v 1.000000 4.000000 2.689826
v 1.000000 3.909152 2.909152
v -1.000000 4.000000 2.689826
v -1.000000 3.689826 3.000000
v -1.000000 3.909152 2.909152
v -0.851136 2.148864 3.000000
v -1.088534 1.911466 2.689826
v -1.019002 1.980998 2.909152
v -1.000000 1.697727 2.689826
v -0.689826 1.759424 3.000000
v -0.909152 1.715798 2.909152
v -1.240575 2.310174 3.000000
v -1.302273 2.000000 2.689826
v -1.284202 2.090848 2.909152
v 0.851136 2.148864 3.000000
v 1.088534 1.911466 2.689826
v 1.019002 1.980998 2.909152
v 1.302273 2.000000 2.689826
v 1.240575 2.310174 3.000000
v 1.284202 2.090848 2.909152
v 0.689826 1.759424 3.000000
v 1.000000 1.697727 2.689826
v 0.909152 1.715798 2.909152
v -1.000000 -0.697727 2.689826
v -0.689826 -0.636030 3.000000
v -0.909152 -0.679656 2.909152
v -0.911466 -0.911466 2.689826
v -0.674069 -0.674069 3.000000
v -0.841934 -0.841934 2.909152
v -0.697727 -1.000000 2.689826
v -0.636030 -0.689826 3.000000
v -0.679656 -0.909152 2.909152
v 0.697727 -1.000000 2.689826
v 0.636030 -0.689826 3.000000
v 0.679656 -0.909152 2.909152
v 0.911466 -0.911466 2.689826
v 0.674069 -0.674069 3.000000
v 0.841934 -0.841934 2.909152
v 1.000000 -0.697727 2.689826
v 0.689826 -0.636030 3.000000
v 0.909152 -0.679656 2.909152
v -3.636030 2.310174 3.000000
v -3.697727 2.000000 2.689826
v -3.679656 2.090848 2.909152
v -3.697727 4.000000 2.689826
v -3.636030 3.689826 3.000000
v -3.679656 3.909152 2.909152
v -3.911467 3.911467 2.689826
v -3.674069 3.674070 3.000000
v -3.841934 3.841935 2.909152
v -4.000000 3.697727 2.689826
v -3.689826 3.636030 3.000000
v -3.909152 3.679656 2.909152
v -4.000000 2.302273 2.689826
v -3.689826 2.363970 3.000000
v -3.909152 2.320344 2.909152
v -3.911467 2.088533 2.689826
v -3.674070 2.325931 3.000000
v -3.841935 2.158066 2.909152
v 3.636030 3.689826 3.000000
v 3.697727 4.000000 2.689826
v 3.679656 3.909152 2.909152
v 3.697727 2.000000 2.689826
v 3.636030 2.310174 3.000000
v 3.679656 2.090848 2.909152
v 3.911467 2.088533 2.689826
v 3.674069 2.325930 3.000000
v 3.841934 2.158065 2.909152
v 4.000000 2.302273 2.689826
v 3.689826 2.363970 3.000000
v 3.909152 2.320344 2.909152
v 4.000000 3.697727 2.689826
v 3.689826 3.636030 3.000000
v 3.909152 3.679656 2.909152
v 3.911467 3.911467 2.689826
v 3.674070 3.674069 3.000000
v 3.841935 3.841934 2.909152
vt 0.000000 0.100758
vt 0.000000 0.899242
vt 1.000000 1.000000
vt 1.000000 1.000000
vt 1.000000 1.000000
vt 1.000000 1.000000
vt 0.151136 0.000000
vt 0.044267 0.029511
vt 0.044267 0.029511
vt 1.000000 1.000000
vt 1.000000 1.000000
vt 1.000000 1.000000
vt 0.000000 1.000000
vt 0.000000 1.000000
vt 0.000000 1.000000
vt 0.848864 0.000000
vt 0.151136 0.000000
vt 1.000000 1.000000
vt 1.000000 1.000000
vt 0.848867 0.106205
vt 0.821049 0.876990
vt 0.179257 0.823035
vt 0.000000 1.000000
vt 0.000000 1.000000
vt 0.955733 0.029511
vt 0.848863 0.000000
vt 1.000000 1.000000
vt 1.000000 1.000000
vt -0.044267 0.970489
vt -0.151136 1.000000
vt -0.151136 1.000000
vt 0.000000 1.000000
vt 0.000000 1.000000
vt 1.000000 0.100758
vt 0.955733 0.029511
vt 0.000000 0.899242
vt 1.000000 1.000000
vt 0.000000 1.000000
vt 0.000000 1.000000
vt 1.000000 1.000000
vt 1.000000 1.000000
vt 1.000000 1.000000
vt 1.000000 1.000000
vt 0.000000 1.000000
vt 0.000000 1.000000
vt 0.000000 0.100758
vt 1.000000 1.000000
vt 1.000000 1.000000
vt 0.000000 1.000000
vt 0.000000 1.000000
vt 1.000000 1.000000
vt 0.000000 1.000000
vt 1.000000 0.100758
vt -0.044267 0.970489
vt 1.000000 1.000000
vt 0.985277 0.996461
vt 0.890263 0.982671
vt 0.876483 0.963041
vt 0.102096 0.983462
vt 0.816426 0.926378
vt 0.980721 0.997857
vt 0.012030 0.997414
vt 0.033660 0.966458
vt 0.011622 0.997552
vt 0.012028 0.997528
vt 0.013280 0.999580
vt 0.013923 0.999466
vt 0.013363 0.999569
vt 0.985820 0.996630
vt 0.985325 0.996565
vt 0.981264 0.997823
vt 0.981605 0.997939
vt 0.145782 0.907020
vt 0.153855 0.103924
vt 0.161842 0.091964
vt 0.180980 0.086318
vt 0.821663 0.087829
vt 0.840752 0.093684
vt 1.000000 1.000000
vt 0.000000 1.000000
vt 0.000000 0.899242
vt -0.044267 0.970489
vt -0.151136 1.000000
vt 1.000000 1.000000
vt 1.000000 1.000000
vt 1.000000 1.000000
vt 0.001729 0.100987
vt 0.049358 0.032905
vt 0.151480 0.001153
vt 0.950642 0.032905
vt 0.848520 0.001153
vt 0.998271 0.101367
vt -0.000570 1.000000
vt 0.000000 1.000000
vt 0.000000 1.000000
vt 0.000000 1.000000
vt 0.000000 1.000000
vt 0.000000 1.000000
vt 1.000000 1.000000
vt 1.000000 1.000000
vt 1.000000 1.000000
vt 1.000000 1.000000
vt 1.000000 1.000000
vt 1.000000 1.000000
vn 0.0000 0.0000 -1.0000
vn 0.0000 1.0000 0.0000
vn -0.3827 -0.9239 0.0000
vn 0.9239 -0.3827 0.0000
vn -0.9239 0.3827 0.0000
vn 0.0000 -1.0000 0.0000
vn 1.0000 0.0000 0.0000
vn 0.0000 0.0000 1.0000
vn -1.0000 0.0000 0.0000
vn 0.3827 -0.9239 0.0000
vn 0.9239 0.3827 0.0000
vn -0.9239 -0.3827 0.0000
vn 0.3827 0.9239 0.0000
vn -0.3827 0.9239 0.0000
vn 0.0000 0.9239 0.3827
vn 0.0000 0.3827 0.9239
vn -0.8536 -0.3536 0.3827
vn -0.3536 -0.1464 0.9239
vn -0.3536 -0.8536 0.3827
vn -0.1464 -0.3536 0.9239
vn 0.3536 -0.8536 0.3827
vn 0.1464 -0.3536 0.9239
vn 0.8536 -0.3536 0.3827
vn 0.3536 -0.1464 0.9239
vn -0.9239 0.0000 0.3827
vn -0.3827 0.0000 0.9239
vn 0.0000 -0.9239 0.3827
vn 0.0000 -0.3827 0.9239
vn 0.9239 0.0000 0.3827
vn 0.3827 0.0000 0.9239
vn -0.3536 0.8536 0.3827
vn -0.1464 0.3536 0.9239
vn -0.8536 0.3536 0.3827
vn -0.3536 0.1464 0.9239
vn 0.8536 0.3536 0.3827
vn 0.3536 0.1464 0.9239
vn 0.3536 0.8536 0.3827
vn 0.1464 0.3536 0.9239
usemtl Material.003
s off
f 4/1/1 9/2/1 13/3/1
f 2/4/2 88/5/2 24/6/2
f 3/7/3 54/8/3 5/9/3
f 22/10/4 93/11/4 23/12/4
f 19/13/5 75/14/5 20/15/5
f 7/16/6 57/17/6 3/7/6
f 25/18/7 96/19/7 22/10/7
f 67/20/8 48/21/8 37/22/8
f 16/23/9 78/24/9 19/13/9
f 8/25/10 60/26/10 7/16/10
f 26/27/11 99/28/11 25/18/11
f 11/29/3 40/30/3 10/31/3
f 17/32/12 81/33/12 16/23/12
f 6/34/4 63/35/4 8/25/4
f 4/1/9 36/36/9 9/2/9
f 24/6/13 102/37/13 26/27/13
f 15/38/3 84/39/3 17/32/3
f 23/12/10 90/40/10 21/41/10
f 14/42/4 49/43/4 13/3/4
f 20/15/14 72/44/14 18/45/14
f 5/9/12 51/46/12 4/1/12
f 21/41/6 45/47/6 12/48/6
f 18/45/2 30/49/2 1/50/2
f 12/48/10 43/51/10 14/42/10
f 10/31/6 70/52/6 15/38/6
f 13/3/7 66/53/7 6/34/7
f 9/2/12 34/54/12 11/29/12
f 1/50/2 28/55/2 2/4/2
f 1/50/1 2/4/1 14/42/1
f 2/4/1 24/6/1 12/48/1
f 12/48/1 24/6/1 21/41/1
f 24/6/1 26/27/1 25/18/1
f 25/18/1 22/10/1 21/41/1
f 22/10/1 23/12/1 21/41/1
f 25/18/1 21/41/1 24/6/1
f 20/15/1 18/45/1 19/13/1
f 18/45/1 1/50/1 10/31/1
f 16/23/1 18/45/1 15/38/1
f 16/23/1 19/13/1 18/45/1
f 15/38/1 17/32/1 16/23/1
f 10/31/1 15/38/1 18/45/1
f 2/4/1 12/48/1 14/42/1
f 11/29/1 10/31/1 1/50/1
f 1/50/1 14/42/1 11/29/1
f 14/42/1 13/3/1 11/29/1
f 13/3/1 6/34/1 4/1/1
f 6/34/1 8/25/1 7/16/1
f 3/7/1 6/34/1 7/16/1
f 3/7/1 5/9/1 4/1/1
f 9/2/1 11/29/1 13/3/1
f 3/7/1 4/1/1 6/34/1
f 2/4/2 28/55/2 88/5/2
f 3/7/3 57/17/3 54/8/3
f 22/10/4 96/19/4 93/11/4
f 19/13/5 78/24/5 75/14/5
f 7/16/6 60/26/6 57/17/6
f 25/18/7 99/28/7 96/19/7
f 87/56/8 27/57/8 46/58/8
f 27/57/8 31/59/8 42/60/8
f 87/56/8 46/58/8 91/61/8
f 31/59/8 73/62/8 39/63/8
f 73/62/8 76/64/8 79/65/8
f 39/63/8 73/62/8 69/66/8
f 79/65/8 82/67/8 73/62/8
f 82/67/8 85/68/8 69/66/8
f 82/67/8 69/66/8 73/62/8
f 103/69/8 87/56/8 100/70/8
f 46/58/8 27/57/8 42/60/8
f 97/71/8 100/70/8 87/56/8
f 91/61/8 94/72/8 97/71/8
f 91/61/8 97/71/8 87/56/8
f 31/59/8 39/63/8 33/73/8
f 31/59/8 33/73/8 42/60/8
f 33/73/8 37/22/8 48/21/8
f 37/22/8 52/74/8 67/20/8
f 52/74/8 55/75/8 58/76/8
f 61/77/8 52/74/8 58/76/8
f 61/77/8 64/78/8 67/20/8
f 48/21/8 42/60/8 33/73/8
f 61/77/8 67/20/8 52/74/8
f 16/23/9 81/33/9 78/24/9
f 8/25/10 63/35/10 60/26/10
f 26/27/11 102/37/11 99/28/11
f 11/29/3 34/54/3 40/30/3
f 17/32/12 84/39/12 81/33/12
f 6/34/4 66/53/4 63/35/4
f 4/1/9 51/46/9 36/36/9
f 24/6/13 88/5/13 102/37/13
f 15/38/3 70/52/3 84/39/3
f 23/12/10 93/11/10 90/40/10
f 14/42/4 43/51/4 49/43/4
f 20/15/14 75/14/14 72/44/14
f 5/9/12 54/8/12 51/46/12
f 21/41/6 90/40/6 45/47/6
f 18/45/2 72/44/2 30/49/2
f 12/48/10 45/47/10 43/51/10
f 10/31/6 40/30/6 70/52/6
f 13/3/7 49/43/7 66/53/7
f 9/2/12 36/36/12 34/54/12
f 1/50/2 30/49/2 28/55/2
usemtl Material.005
f 30/49/15 29/79/15 28/55/15
f 32/80/16 27/57/16 29/79/16
f 34/54/17 38/81/17 35/82/17
f 35/82/18 37/22/18 33/73/18
f 34/54/19 41/83/19 40/30/19
f 35/82/20 39/63/20 41/83/20
f 43/51/21 47/84/21 44/85/21
f 44/85/22 46/58/22 42/60/22
f 43/51/23 50/86/23 49/43/23
f 44/85/24 48/21/24 50/86/24
f 36/36/25 53/87/25 38/81/25
f 38/81/26 52/74/26 37/22/26
f 51/46/17 56/88/17 53/87/17
f 53/87/18 55/75/18 52/74/18
f 57/17/19 56/88/19 54/8/19
f 59/89/20 55/75/20 56/88/20
f 60/26/27 59/89/27 57/17/27
f 59/89/28 61/77/28 58/76/28
f 60/26/21 65/90/21 62/91/21
f 62/91/22 64/78/22 61/77/22
f 66/53/23 65/90/23 63/35/23
f 68/92/24 64/78/24 65/90/24
f 49/43/29 68/92/29 66/53/29
f 50/86/30 67/20/30 68/92/30
f 40/30/27 71/93/27 70/52/27
f 41/83/28 69/66/28 71/93/28
f 30/49/15 74/94/15 32/80/15
f 32/80/16 73/62/16 31/59/16
f 72/44/31 77/95/31 74/94/31
f 74/94/32 76/64/32 73/62/32
f 78/24/33 77/95/33 75/14/33
f 80/96/34 76/64/34 77/95/34
f 81/33/25 80/96/25 78/24/25
f 83/97/26 79/65/26 80/96/26
f 81/33/17 86/98/17 83/97/17
f 83/97/18 85/68/18 82/67/18
f 70/52/19 86/98/19 84/39/19
f 71/93/20 85/68/20 86/98/20
f 28/55/15 89/99/15 88/5/15
f 29/79/16 87/56/16 89/99/16
f 45/47/27 92/100/27 47/84/27
f 47/84/28 91/61/28 46/58/28
f 90/40/21 95/101/21 92/100/21
f 92/100/22 94/72/22 91/61/22
f 96/19/23 95/101/23 93/11/23
f 98/102/24 94/72/24 95/101/24
f 99/28/29 98/102/29 96/19/29
f 101/103/30 97/71/30 98/102/30
f 99/28/35 104/104/35 101/103/35
f 101/103/36 103/69/36 100/70/36
f 88/5/37 104/104/37 102/37/37
f 89/99/38 103/69/38 104/104/38
f 30/49/15 32/80/15 29/79/15
f 32/80/16 31/59/16 27/57/16
f 34/54/17 36/36/17 38/81/17
f 35/82/18 38/81/18 37/22/18
f 34/54/19 35/82/19 41/83/19
f 35/82/20 33/73/20 39/63/20
f 43/51/21 45/47/21 47/84/21
f 44/85/22 47/84/22 46/58/22
f 43/51/23 44/85/23 50/86/23
f 44/85/24 42/60/24 48/21/24
f 36/36/25 51/46/25 53/87/25
f 38/81/26 53/87/26 52/74/26
f 51/46/17 54/8/17 56/88/17
f 53/87/18 56/88/18 55/75/18
f 57/17/19 59/89/19 56/88/19
f 59/89/20 58/76/20 55/75/20
f 60/26/27 62/91/27 59/89/27
f 59/89/28 62/91/28 61/77/28
f 60/26/21 63/35/21 65/90/21
f 62/91/22 65/90/22 64/78/22
f 66/53/23 68/92/23 65/90/23
f 68/92/24 67/20/24 64/78/24
f 49/43/29 50/86/29 68/92/29
f 50/86/30 48/21/30 67/20/30
f 40/30/27 41/83/27 71/93/27
f 41/83/28 39/63/28 69/66/28
f 30/49/15 72/44/15 74/94/15
f 32/80/16 74/94/16 73/62/16
f 72/44/31 75/14/31 77/95/31
f 74/94/32 77/95/32 76/64/32
f 78/24/33 80/96/33 77/95/33
f 80/96/34 79/65/34 76/64/34
f 81/33/25 83/97/25 80/96/25
f 83/97/26 82/67/26 79/65/26
f 81/33/17 84/39/17 86/98/17
f 83/97/18 86/98/18 85/68/18
f 70/52/19 71/93/19 86/98/19
f 71/93/20 69/66/20 85/68/20
f 28/55/15 29/79/15 89/99/15
f 29/79/16 27/57/16 87/56/16
f 45/47/27 90/40/27 92/100/27
f 47/84/28 92/100/28 91/61/28
f 90/40/21 93/11/21 95/101/21
f 92/100/22 95/101/22 94/72/22
f 96/19/23 98/102/23 95/101/23
f 98/102/24 97/71/24 94/72/24
f 99/28/29 101/103/29 98/102/29
f 101/103/30 100/70/30 97/71/30
f 99/28/35 102/37/35 104/104/35
f 101/103/36 104/104/36 103/69/36
f 88/5/37 89/99/37 104/104/37
f 89/99/38 87/56/38 103/69/38
