# Blender v3.6.2 OBJ File: 'Level_2.blend'
# www.blender.org
mtllib 2_Pellet.mtl
o Pellet.749_Crystal5_Cylinder.750
v 0.174366 -0.051279 -0.262576
v 0.121170 0.095964 -0.182470
v 0.314581 -0.028282 0.019717
v 0.000000 -0.334867 -0.000000
v -0.140215 -0.036722 -0.282293
v -0.314581 -0.036722 -0.019717
v -0.097439 0.095964 -0.196172
v -0.218609 0.095964 -0.013702
v -0.121170 0.095964 0.182470
v 0.097439 0.095964 0.196172
v -0.174366 -0.051224 0.262576
v 0.140215 -0.036722 0.282293
v 0.218609 0.095964 0.013702
vn 0.0772 0.4978 -0.8638
vn 0.7582 0.5010 -0.4174
vn 0.6787 -0.6782 -0.2818
vn 0.0141 -0.6840 -0.7294
vn -0.6144 -0.6753 -0.4080
vn -0.7056 0.5316 -0.4686
vn 0.0000 1.0000 -0.0000
vn -0.7662 0.4980 0.4062
vn -0.0771 0.4980 0.8638
vn -0.0142 -0.6839 0.7294
vn -0.6668 -0.6839 0.2960
vn 0.6282 -0.6700 0.3956
vn 0.6956 0.5353 0.4792
vn 0.0530 0.5316 -0.8453
vn 0.7440 0.5568 -0.3695
vn -0.7586 0.5316 0.3768
vn -0.0530 0.5316 0.8453
vn 0.6920 0.5568 0.4595
usemtl Cyan.425
s off
f 5//1 2//1 1//1
f 2//2 3//2 1//2
f 1//3 3//3 4//3
f 5//4 1//4 4//4
f 6//5 5//5 4//5
f 8//6 5//6 6//6
f 9//7 10//7 2//7
f 9//8 6//8 11//8
f 12//9 9//9 11//9
f 12//10 11//10 4//10
f 11//11 6//11 4//11
f 3//12 12//12 4//12
f 3//13 10//13 12//13
f 5//14 7//14 2//14
f 2//15 13//15 3//15
f 8//6 7//6 5//6
f 10//7 13//7 2//7
f 2//7 7//7 8//7
f 8//7 9//7 2//7
f 9//16 8//16 6//16
f 12//17 10//17 9//17
f 3//18 13//18 10//18
