# Blender v3.2.1 OBJ File: 'Broken_maze.blend'
# www.blender.org
mtllib 2_Horizontal_Line.mtl
o Horizontal_Line.001_Plane.011
v -1.000000 3.273669 -2.488043
v -0.933013 3.523669 -2.488043
v -1.000000 -3.273669 -2.488043
v -1.000000 3.273669 2.211957
v -0.933013 3.523669 2.211957
v -0.985318 3.271736 2.304662
v -1.000000 -3.273669 2.211957
v -0.985318 -3.271736 2.304662
v -0.933013 -3.523669 2.211957
v -0.919848 -3.516068 2.304662
v -0.750000 -3.706681 2.211957
v -0.933013 -3.523669 -2.488043
v -0.750000 -3.706681 -2.488043
v -0.500000 -3.773669 -2.488043
v 0.500000 -3.773669 -2.488043
v -0.500000 -3.773669 2.211957
v -0.498067 -3.758985 2.304662
v 0.500000 -3.773669 2.211957
v 0.498067 -3.758985 2.304662
v 0.750000 -3.706681 2.211957
v 0.742400 -3.693517 2.304662
v 0.933013 -3.523669 2.211957
v 0.750000 -3.706681 -2.488043
v 0.933013 -3.523669 -2.488043
v 1.000000 -3.273669 -2.488043
v 1.000000 3.273669 -2.488043
v 1.000000 -3.273669 2.211957
v 0.985318 -3.271736 2.304662
v 1.000000 3.273669 2.211957
v 0.985318 3.271736 2.304662
v 0.933013 3.523669 2.211957
v 0.919848 3.516068 2.304662
v 0.750000 3.706681 2.211957
v 0.933013 3.523669 -2.488043
v 0.750000 3.706681 -2.488043
v 0.500000 3.773669 -2.488043
v -0.500000 3.773669 -2.488043
v 0.500000 3.773669 2.211957
v 0.498067 3.758986 2.304662
v -0.500000 3.773669 2.211957
v -0.498067 3.758986 2.304662
v -0.750000 3.706681 2.211957
v -0.742399 3.693517 2.304662
v -0.750000 3.706681 -2.488043
v -0.720343 3.655312 2.388293
v -0.919848 3.516068 2.304662
v -0.881643 3.494010 2.388293
v -0.822139 3.459655 2.454662
v -0.942706 3.266126 2.388293
v -0.876337 3.257388 2.454662
v -0.942706 -3.266126 2.388293
v -0.876337 -3.257388 2.454662
v -0.881643 -3.494011 2.388293
v -0.822139 -3.459655 2.454662
v -0.720343 -3.655312 2.388293
v -0.742400 -3.693517 2.304662
v -0.685987 -3.595807 2.454662
v -0.492457 -3.716374 2.388293
v -0.483719 -3.650004 2.454662
v 0.492457 -3.716374 2.388293
v 0.483720 -3.650004 2.454662
v 0.720343 -3.655312 2.388293
v 0.685987 -3.595807 2.454662
v 0.881643 -3.494011 2.388293
v 0.919848 -3.516068 2.304662
v 0.822139 -3.459655 2.454662
v 0.942706 -3.266126 2.388293
v 0.876337 -3.257388 2.454662
v 0.942706 3.266126 2.388293
v 0.876337 3.257388 2.454662
v 0.881643 3.494010 2.388293
v 0.822139 3.459655 2.454662
v 0.720343 3.655312 2.388293
v 0.742399 3.693517 2.304662
v 0.685987 3.595807 2.454662
v 0.492457 3.716374 2.388293
v -0.492457 3.716374 2.388293
v 0.483720 3.650004 2.454662
v -0.483720 3.650004 2.454662
v 0.472710 3.566374 2.497274
v -0.472710 3.566374 2.497274
v 0.460505 3.473669 2.511957
v 0.642696 3.520826 2.497274
v 0.747158 3.416365 2.497274
v 0.594709 3.437709 2.511957
v 0.664041 3.368377 2.511957
v 0.700000 3.234174 2.511957
v 0.792706 3.246378 2.497274
v 0.700000 -3.234174 2.511957
v 0.792706 -3.246379 2.497274
v 0.664041 -3.368377 2.511957
v 0.747157 -3.416364 2.497274
v 0.594709 -3.437708 2.511957
v 0.642697 -3.520826 2.497274
v 0.460505 -3.473668 2.511957
v 0.472710 -3.566374 2.497274
v -0.460505 -3.473668 2.511957
v -0.472710 -3.566374 2.497274
v -0.594709 -3.437708 2.511957
v -0.642697 -3.520826 2.497274
v -0.664041 -3.368377 2.511957
v -0.747157 -3.416364 2.497274
v -0.700000 -3.234174 2.511957
v -0.792706 -3.246379 2.497274
v -0.700000 3.234174 2.511957
v -0.792706 3.246378 2.497274
v -0.664041 3.368377 2.511957
v -0.747158 3.416365 2.497274
v -0.594709 3.437709 2.511957
v -0.642696 3.520826 2.497274
v -0.460505 3.473669 2.511957
v -0.685987 3.595807 2.454662
vt 0.000000 0.933751
vt 0.033494 0.966876
vt 0.033494 0.966876
vt 1.000000 0.066249
vt 0.250000 0.000000
vt 0.000000 0.066248
vt 0.000000 0.933751
vt 0.033494 0.033124
vt 0.000000 0.066248
vt 0.125000 0.008876
vt 0.033494 0.033124
vt 0.125000 0.008876
vt 0.750000 0.000000
vt 0.250000 0.000000
vt 0.875000 0.008876
vt 0.750000 0.000000
vt 0.966506 0.033124
vt 0.875000 0.008876
vt 0.966506 0.033124
vt 1.000000 0.933752
vt 1.000000 0.066249
vt 0.966506 0.966876
vt 1.000000 0.933752
vt 0.875000 0.991124
vt 0.966506 0.966876
vt 0.750000 1.000000
vt 0.875000 0.991124
vt 0.250000 1.000000
vt 0.750000 1.000000
vt 0.125000 0.991124
vt 0.250000 1.000000
vt 0.125000 0.991124
vt 0.850000 0.928518
vt 0.730252 0.960251
vt 0.150000 0.928519
vt 0.269748 0.960251
vt 0.202645 0.955486
vt 0.167980 0.946300
vt 0.150000 0.071481
vt 0.850000 0.071481
vt 0.167980 0.053700
vt 0.269748 0.039749
vt 0.202645 0.044514
vt 0.730252 0.039749
vt 0.797355 0.044514
vt 0.832020 0.053700
vt 0.832020 0.946300
vt 0.797355 0.955486
vt 0.033934 0.966808
vt 0.000125 0.933747
vt 0.033935 0.033192
vt 0.000125 0.066253
vt 0.125255 0.008992
vt 0.250016 0.000033
vt 0.874746 0.008993
vt 0.749984 0.000033
vt 0.966066 0.033192
vt 0.999875 0.066253
vt 0.966065 0.966808
vt 0.999875 0.933747
vt 0.874745 0.991008
vt 0.749984 0.999967
vt 0.125255 0.991008
vt 0.250016 0.999967
vt 0.125993 0.990668
vt 0.250064 0.999871
vt 0.035214 0.966612
vt 0.157006 0.976434
vt 0.000488 0.933735
vt 0.088931 0.958394
vt 0.000488 0.066265
vt 0.061831 0.931594
vt 0.035214 0.033387
vt 0.088931 0.041606
vt 0.061831 0.068406
vt 0.157006 0.023566
vt 0.125993 0.009332
vt 0.250064 0.000129
vt 0.749936 0.000129
vt 0.258141 0.016385
vt 0.874007 0.009332
vt 0.842994 0.023566
vt 0.741860 0.016385
vt 0.964786 0.033387
vt 0.999512 0.066266
vt 0.911069 0.041606
vt 0.999512 0.933735
vt 0.938169 0.068406
vt 0.964786 0.966612
vt 0.911069 0.958394
vt 0.938169 0.931594
vt 0.874007 0.990668
vt 0.842994 0.976434
vt 0.749936 0.999871
vt 0.741860 0.983615
vt 0.258140 0.983615
vt 0.736355 0.972534
vt 0.821348 0.966499
vt 0.263645 0.972534
vt 0.873579 0.952658
vt 0.896353 0.930136
vt 0.896353 0.069864
vt 0.873579 0.047342
vt 0.821349 0.033501
vt 0.736355 0.027466
vt 0.263645 0.027466
vt 0.178651 0.033501
vt 0.126421 0.047342
vt 0.103647 0.069864
vt 0.103647 0.930136
vt 0.126421 0.952658
vt 0.178652 0.966499
vn -0.9659 0.2588 0.0000
vn 0.0000 0.0000 -1.0000
vn -1.0000 0.0000 0.0000
vn -0.9659 -0.2588 0.0000
vn -0.7071 -0.7071 0.0000
vn -0.2588 -0.9659 0.0000
vn 0.0000 -1.0000 0.0000
vn 0.2588 -0.9659 0.0000
vn 0.7071 -0.7071 0.0000
vn 0.9659 -0.2588 0.0000
vn 1.0000 0.0000 0.0000
vn 0.9659 0.2588 0.0000
vn 0.7071 0.7071 0.0000
vn 0.2588 0.9659 0.0000
vn 0.0000 1.0000 0.0000
vn -0.2588 0.9659 0.0000
vn -0.7071 0.7071 0.0000
vn 0.0000 0.0000 1.0000
vn -0.9540 0.2556 0.1564
vn -0.9877 0.0000 0.1564
vn -0.9540 -0.2556 0.1564
vn -0.6984 -0.6984 0.1564
vn -0.2556 -0.9540 0.1564
vn 0.0000 -0.9877 0.1564
vn 0.2556 -0.9540 0.1564
vn 0.6984 -0.6984 0.1564
vn 0.9540 -0.2556 0.1564
vn 0.9877 0.0000 0.1564
vn 0.9540 0.2556 0.1564
vn 0.6984 0.6984 0.1564
vn 0.2556 0.9540 0.1564
vn 0.0000 0.9877 0.1564
vn -0.2556 0.9540 0.1564
vn -0.6984 0.6984 0.1564
vn -0.2306 0.8606 0.4540
vn -0.6300 0.6300 0.4540
vn -0.8606 0.2306 0.4540
vn -0.5000 0.5000 0.7071
vn -0.6830 0.1830 0.7071
vn -0.8910 0.0000 0.4540
vn -0.7071 0.0000 0.7071
vn -0.8606 -0.2306 0.4540
vn -0.6830 -0.1830 0.7071
vn -0.6300 -0.6300 0.4540
vn -0.5000 -0.5000 0.7071
vn -0.2306 -0.8606 0.4540
vn -0.1830 -0.6830 0.7071
vn 0.0000 -0.8910 0.4540
vn 0.0000 -0.7071 0.7071
vn 0.2306 -0.8606 0.4540
vn 0.1830 -0.6830 0.7071
vn 0.6300 -0.6300 0.4540
vn 0.5000 -0.5000 0.7071
vn 0.8606 -0.2306 0.4540
vn 0.6830 -0.1830 0.7071
vn 0.8910 0.0000 0.4540
vn 0.7071 0.0000 0.7071
vn 0.8606 0.2306 0.4540
vn 0.6830 0.1830 0.7071
vn 0.6300 0.6300 0.4540
vn 0.5000 0.5000 0.7071
vn 0.2306 0.8606 0.4540
vn 0.1830 0.6830 0.7071
vn 0.0000 0.8910 0.4540
vn 0.0000 0.7071 0.7071
vn 0.0000 0.4540 0.8910
vn 0.1175 0.4385 0.8910
vn 0.0000 0.1564 0.9877
vn 0.0405 0.1511 0.9877
vn 0.3210 0.3210 0.8910
vn 0.1106 0.1106 0.9877
vn 0.1511 0.0405 0.9877
vn 0.1564 0.0000 0.9877
vn 0.1511 -0.0405 0.9877
vn 0.1106 -0.1106 0.9877
vn 0.0405 -0.1511 0.9877
vn 0.0000 -0.1564 0.9877
vn -0.0405 -0.1511 0.9877
vn -0.1106 -0.1106 0.9877
vn -0.1511 -0.0405 0.9877
vn -0.1564 0.0000 0.9877
vn -0.1511 0.0405 0.9877
vn -0.1106 0.1106 0.9877
vn -0.0405 0.1511 0.9877
vn -0.3210 0.3210 0.8910
vn -0.1175 0.4385 0.8910
vn -0.1830 0.6830 0.7071
vn -0.4385 0.1175 0.8910
vn -0.4540 0.0000 0.8910
vn -0.4385 -0.1175 0.8910
vn -0.3210 -0.3210 0.8910
vn -0.1175 -0.4385 0.8910
vn 0.0000 -0.4540 0.8910
vn 0.1175 -0.4385 0.8910
vn 0.3210 -0.3210 0.8910
vn 0.4385 -0.1175 0.8910
vn 0.4540 0.0000 0.8910
vn 0.4385 0.1175 0.8910
usemtl Material.001
s off
f 1/1/1 5/2/1 2/3/1
f 25/4/2 14/5/2 3/6/2
f 3/6/3 4/7/3 1/1/3
f 12/8/4 7/9/4 3/6/4
f 13/10/5 9/11/5 12/8/5
f 14/5/6 11/12/6 13/10/6
f 15/13/7 16/14/7 14/5/7
f 23/15/8 18/16/8 15/13/8
f 24/17/9 20/18/9 23/15/9
f 25/4/10 22/19/10 24/17/10
f 26/20/11 27/21/11 25/4/11
f 34/22/12 29/23/12 26/20/12
f 35/24/13 31/25/13 34/22/13
f 36/26/14 33/27/14 35/24/14
f 37/28/15 38/29/15 36/26/15
f 44/30/16 40/31/16 37/28/16
f 2/3/17 42/32/17 44/30/17
f 87/33/18 82/34/18 105/35/18
f 1/1/1 4/7/1 5/2/1
f 44/30/2 37/28/2 1/1/2
f 37/28/2 36/26/2 1/1/2
f 36/26/2 35/24/2 34/22/2
f 34/22/2 26/20/2 36/26/2
f 26/20/2 25/4/2 1/1/2
f 25/4/2 24/17/2 23/15/2
f 23/15/2 15/13/2 25/4/2
f 15/13/2 14/5/2 25/4/2
f 14/5/2 13/10/2 12/8/2
f 12/8/2 3/6/2 14/5/2
f 3/6/2 1/1/2 25/4/2
f 1/1/2 2/3/2 44/30/2
f 1/1/2 36/26/2 26/20/2
f 3/6/3 7/9/3 4/7/3
f 12/8/4 9/11/4 7/9/4
f 13/10/5 11/12/5 9/11/5
f 14/5/6 16/14/6 11/12/6
f 15/13/7 18/16/7 16/14/7
f 23/15/8 20/18/8 18/16/8
f 24/17/9 22/19/9 20/18/9
f 25/4/10 27/21/10 22/19/10
f 26/20/11 29/23/11 27/21/11
f 34/22/12 31/25/12 29/23/12
f 35/24/13 33/27/13 31/25/13
f 36/26/14 38/29/14 33/27/14
f 37/28/15 40/31/15 38/29/15
f 44/30/16 42/32/16 40/31/16
f 2/3/17 5/2/17 42/32/17
f 82/34/18 111/36/18 105/35/18
f 111/36/18 109/37/18 105/35/18
f 109/37/18 107/38/18 105/35/18
f 105/35/18 103/39/18 89/40/18
f 103/39/18 101/41/18 97/42/18
f 101/41/18 99/43/18 97/42/18
f 97/42/18 95/44/18 89/40/18
f 95/44/18 93/45/18 89/40/18
f 93/45/18 91/46/18 89/40/18
f 89/40/18 87/33/18 105/35/18
f 87/33/18 86/47/18 82/34/18
f 86/47/18 85/48/18 82/34/18
f 103/39/18 97/42/18 89/40/18
usemtl Material.002
f 4/7/19 46/49/19 5/2/19
f 7/9/20 6/50/20 4/7/20
f 7/9/21 10/51/21 8/52/21
f 9/11/22 56/53/22 10/51/22
f 16/14/23 56/53/23 11/12/23
f 18/16/24 17/54/24 16/14/24
f 18/16/25 21/55/25 19/56/25
f 22/19/26 21/55/26 20/18/26
f 27/21/27 65/57/27 22/19/27
f 29/23/28 28/58/28 27/21/28
f 29/23/29 32/59/29 30/60/29
f 33/27/30 32/59/30 31/25/30
f 38/29/31 74/61/31 33/27/31
f 40/31/32 39/62/32 38/29/32
f 40/31/33 43/63/33 41/64/33
f 42/32/34 46/49/34 43/63/34
f 41/64/35 45/65/35 77/66/35
f 46/49/36 45/65/36 43/63/36
f 6/50/37 47/67/37 46/49/37
f 47/67/38 112/68/38 45/65/38
f 49/69/39 48/70/39 47/67/39
f 8/52/40 49/69/40 6/50/40
f 51/71/41 50/72/41 49/69/41
f 8/52/42 53/73/42 51/71/42
f 51/71/43 54/74/43 52/75/43
f 56/53/44 53/73/44 10/51/44
f 53/73/45 57/76/45 54/74/45
f 17/54/46 55/77/46 56/53/46
f 58/78/47 57/76/47 55/77/47
f 17/54/48 60/79/48 58/78/48
f 60/79/49 59/80/49 58/78/49
f 19/56/50 62/81/50 60/79/50
f 60/79/51 63/82/51 61/83/51
f 21/55/52 64/84/52 62/81/52
f 64/84/53 63/82/53 62/81/53
f 28/58/54 64/84/54 65/57/54
f 67/85/55 66/86/55 64/84/55
f 30/60/56 67/85/56 28/58/56
f 69/87/57 68/88/57 67/85/57
f 30/60/58 71/89/58 69/87/58
f 69/87/59 72/90/59 70/91/59
f 32/59/60 73/92/60 71/89/60
f 71/89/61 75/93/61 72/90/61
f 39/62/62 73/92/62 74/61/62
f 76/94/63 75/93/63 73/92/63
f 39/62/64 77/66/64 76/94/64
f 77/66/65 78/95/65 76/94/65
f 79/96/66 80/97/66 78/95/66
f 78/95/67 83/98/67 75/93/67
f 81/99/68 82/34/68 80/97/68
f 80/97/69 85/48/69 83/98/69
f 75/93/70 84/100/70 72/90/70
f 84/100/71 85/48/71 86/47/71
f 88/101/72 86/47/72 87/33/72
f 88/101/73 89/40/73 90/102/73
f 90/102/74 91/46/74 92/103/74
f 92/103/75 93/45/75 94/104/75
f 96/105/76 93/45/76 95/44/76
f 96/105/77 97/42/77 98/106/77
f 98/106/78 99/43/78 100/107/78
f 102/108/79 99/43/79 101/41/79
f 104/109/80 101/41/80 103/39/80
f 104/109/81 105/35/81 106/110/81
f 106/110/82 107/38/82 108/111/82
f 108/111/83 109/37/83 110/112/83
f 81/99/84 109/37/84 111/36/84
f 112/68/85 108/111/85 110/112/85
f 79/96/86 110/112/86 81/99/86
f 77/66/87 112/68/87 79/96/87
f 50/72/88 108/111/88 48/70/88
f 52/75/89 106/110/89 50/72/89
f 52/75/90 102/108/90 104/109/90
f 54/74/91 100/107/91 102/108/91
f 59/80/92 100/107/92 57/76/92
f 59/80/93 96/105/93 98/106/93
f 61/83/94 94/104/94 96/105/94
f 66/86/95 94/104/95 63/82/95
f 68/88/96 92/103/96 66/86/96
f 70/91/97 90/102/97 68/88/97
f 70/91/98 84/100/98 88/101/98
f 4/7/19 6/50/19 46/49/19
f 7/9/20 8/52/20 6/50/20
f 7/9/21 9/11/21 10/51/21
f 9/11/22 11/12/22 56/53/22
f 16/14/23 17/54/23 56/53/23
f 18/16/24 19/56/24 17/54/24
f 18/16/25 20/18/25 21/55/25
f 22/19/26 65/57/26 21/55/26
f 27/21/27 28/58/27 65/57/27
f 29/23/28 30/60/28 28/58/28
f 29/23/29 31/25/29 32/59/29
f 33/27/30 74/61/30 32/59/30
f 38/29/31 39/62/31 74/61/31
f 40/31/32 41/64/32 39/62/32
f 40/31/33 42/32/33 43/63/33
f 42/32/34 5/2/34 46/49/34
f 41/64/35 43/63/35 45/65/35
f 46/49/36 47/67/36 45/65/36
f 6/50/37 49/69/37 47/67/37
f 47/67/38 48/70/38 112/68/38
f 49/69/39 50/72/39 48/70/39
f 8/52/40 51/71/40 49/69/40
f 51/71/41 52/75/41 50/72/41
f 8/52/42 10/51/42 53/73/42
f 51/71/43 53/73/43 54/74/43
f 56/53/44 55/77/44 53/73/44
f 53/73/45 55/77/45 57/76/45
f 17/54/46 58/78/46 55/77/46
f 58/78/47 59/80/47 57/76/47
f 17/54/48 19/56/48 60/79/48
f 60/79/49 61/83/49 59/80/49
f 19/56/50 21/55/50 62/81/50
f 60/79/51 62/81/51 63/82/51
f 21/55/52 65/57/52 64/84/52
f 64/84/53 66/86/53 63/82/53
f 28/58/54 67/85/54 64/84/54
f 67/85/55 68/88/55 66/86/55
f 30/60/56 69/87/56 67/85/56
f 69/87/57 70/91/57 68/88/57
f 30/60/58 32/59/58 71/89/58
f 69/87/59 71/89/59 72/90/59
f 32/59/60 74/61/60 73/92/60
f 71/89/61 73/92/61 75/93/61
f 39/62/62 76/94/62 73/92/62
f 76/94/63 78/95/63 75/93/63
f 39/62/64 41/64/64 77/66/64
f 77/66/65 79/96/65 78/95/65
f 79/96/66 81/99/66 80/97/66
f 78/95/67 80/97/67 83/98/67
f 81/99/68 111/36/68 82/34/68
f 80/97/69 82/34/69 85/48/69
f 75/93/70 83/98/70 84/100/70
f 84/100/71 83/98/71 85/48/71
f 88/101/72 84/100/72 86/47/72
f 88/101/73 87/33/73 89/40/73
f 90/102/74 89/40/74 91/46/74
f 92/103/75 91/46/75 93/45/75
f 96/105/76 94/104/76 93/45/76
f 96/105/77 95/44/77 97/42/77
f 98/106/78 97/42/78 99/43/78
f 102/108/79 100/107/79 99/43/79
f 104/109/80 102/108/80 101/41/80
f 104/109/81 103/39/81 105/35/81
f 106/110/82 105/35/82 107/38/82
f 108/111/83 107/38/83 109/37/83
f 81/99/84 110/112/84 109/37/84
f 112/68/85 48/70/85 108/111/85
f 79/96/86 112/68/86 110/112/86
f 77/66/87 45/65/87 112/68/87
f 50/72/88 106/110/88 108/111/88
f 52/75/89 104/109/89 106/110/89
f 52/75/90 54/74/90 102/108/90
f 54/74/91 57/76/91 100/107/91
f 59/80/92 98/106/92 100/107/92
f 59/80/93 61/83/93 96/105/93
f 61/83/94 63/82/94 94/104/94
f 66/86/95 92/103/95 94/104/95
f 68/88/96 90/102/96 92/103/96
f 70/91/97 88/101/97 90/102/97
f 70/91/98 72/90/98 84/100/98
