# Blender v3.2.1 OBJ File: 'Broken_maze.blend'
# www.blender.org
mtllib 2_Horizontal_Wall.mtl
o Horizontal_Wall.001_Plane.010
v 3.886645 -0.500000 -2.488098
v 3.819658 -0.750000 -2.488098
v 3.886645 0.500000 -2.488098
v 3.886645 -0.500000 2.211902
v 3.819658 -0.750000 2.211902
v 3.871964 -0.498067 2.304607
v 3.886645 0.500000 2.211902
v 3.871964 0.498067 2.304607
v 3.819658 0.750000 2.211902
v 3.806494 0.742399 2.304607
v 3.636645 0.933013 2.211902
v 3.819658 0.750000 -2.488098
v 3.636645 0.933013 -2.488098
v 3.386645 1.000000 -2.488098
v -3.386646 1.000000 -2.488098
v 3.386645 1.000000 2.211902
v 3.384712 0.985316 2.304607
v -3.386646 1.000000 2.211902
v -3.384713 0.985316 2.304607
v -3.636646 0.933013 2.211902
v -3.629045 0.919848 2.304607
v -3.819658 0.750000 2.211902
v -3.636646 0.933013 -2.488098
v -3.819658 0.750000 -2.488098
v -3.886646 0.500000 -2.488098
v -3.886646 -0.500000 -2.488098
v -3.886646 0.500000 2.211902
v -3.871963 0.498067 2.304607
v -3.886646 -0.500000 2.211902
v -3.871963 -0.498067 2.304607
v -3.819658 -0.750000 2.211902
v -3.806494 -0.742400 2.304607
v -3.636646 -0.933013 2.211902
v -3.819658 -0.750000 -2.488098
v -3.636646 -0.933013 -2.488098
v -3.386646 -1.000000 -2.488098
v 3.386645 -1.000000 -2.488098
v -3.386646 -1.000000 2.211902
v -3.384713 -0.985316 2.304607
v 3.386645 -1.000000 2.211902
v 3.384712 -0.985316 2.304607
v 3.636645 -0.933013 2.211902
v 3.629045 -0.919848 2.304607
v 3.636645 -0.933013 -2.488098
v 3.606987 -0.881644 2.388238
v 3.806494 -0.742399 2.304607
v 3.768290 -0.720342 2.388238
v 3.708784 -0.685987 2.454607
v 3.829350 -0.492457 2.388238
v 3.762981 -0.483720 2.454607
v 3.829350 0.492457 2.388238
v 3.762981 0.483720 2.454607
v 3.768290 0.720342 2.388238
v 3.708784 0.685987 2.454607
v 3.606987 0.881644 2.388238
v 3.629045 0.919848 2.304607
v 3.572631 0.822139 2.454607
v 3.379103 0.942704 2.388238
v 3.370365 0.876334 2.454607
v -3.379103 0.942704 2.388238
v -3.370366 0.876334 2.454607
v -3.606988 0.881644 2.388238
v -3.572632 0.822139 2.454607
v -3.768290 0.720343 2.388238
v -3.806494 0.742400 2.304607
v -3.708784 0.685987 2.454607
v -3.829351 0.492457 2.388238
v -3.829351 -0.492457 2.388238
v -3.762981 0.483720 2.454607
v -3.762981 -0.483720 2.454607
v -3.679351 0.472710 2.497219
v -3.679351 -0.472710 2.497219
v -3.586646 0.460505 2.511902
v -3.633803 0.642697 2.497219
v -3.529342 0.747157 2.497219
v -3.550685 0.594709 2.511902
v -3.481354 0.664041 2.511902
v -3.347151 0.700000 2.511902
v -3.359356 0.792705 2.497219
v 3.347151 0.700000 2.511902
v 3.359355 0.792704 2.497219
v 3.481353 0.664041 2.511902
v 3.529341 0.747157 2.497219
v 3.550686 0.594707 2.511902
v 3.633802 0.642695 2.497219
v 3.586645 0.460505 2.511902
v 3.679351 0.472710 2.497219
v 3.586645 -0.460505 2.511902
v 3.679351 -0.472710 2.497219
v 3.550686 -0.594707 2.511902
v 3.633802 -0.642695 2.497219
v 3.481353 -0.664041 2.511902
v 3.529341 -0.747157 2.497219
v 3.347151 -0.700000 2.511902
v 3.359355 -0.792704 2.497219
v -3.347151 -0.700000 2.511902
v -3.359356 -0.792705 2.497219
v -3.481354 -0.664041 2.511902
v -3.529342 -0.747157 2.497219
v -3.550685 -0.594709 2.511902
v -3.633803 -0.642697 2.497219
v -3.586646 -0.460505 2.511902
v -3.708784 -0.685987 2.454607
v -3.768290 -0.720343 2.388238
v -3.572632 -0.822139 2.454607
v -3.606988 -0.881644 2.388238
v -3.370366 -0.876334 2.454607
v -3.379103 -0.942704 2.388238
v 3.370365 -0.876334 2.454607
v 3.379103 -0.942704 2.388238
v 3.572631 -0.822139 2.454607
v -3.629045 -0.919848 2.304607
vt 1.000000 0.250000
vt 0.991382 0.125000
vt 0.991382 0.125000
vt 0.935677 1.000000
vt 0.935677 0.000000
vt 1.000000 0.750000
vt 1.000000 0.250000
vt 0.991382 0.875000
vt 1.000000 0.750000
vt 0.967839 0.966507
vt 0.991382 0.875000
vt 0.967839 0.966507
vt 0.064323 1.000000
vt 0.935677 1.000000
vt 0.032161 0.966506
vt 0.064323 1.000000
vt 0.008618 0.875000
vt 0.032161 0.966506
vt 0.000000 0.750000
vt 0.008618 0.875000
vt 0.000000 0.250000
vt 0.000000 0.750000
vt 0.008618 0.125000
vt 0.000000 0.250000
vt 0.032161 0.033494
vt 0.008618 0.125000
vt 0.064323 0.000000
vt 0.032161 0.033494
vt 0.064323 0.000000
vt 0.967839 0.033494
vt 0.935677 0.000000
vt 0.967839 0.033494
vt 0.069404 0.850000
vt 0.038594 0.730252
vt 0.069404 0.150000
vt 0.038594 0.269748
vt 0.043220 0.202645
vt 0.052139 0.167980
vt 0.930596 0.150000
vt 0.930596 0.850000
vt 0.947861 0.167980
vt 0.961406 0.269747
vt 0.956780 0.202646
vt 0.961406 0.730253
vt 0.956780 0.797354
vt 0.947861 0.832020
vt 0.052139 0.832020
vt 0.043220 0.797355
vt 0.991269 0.125255
vt 0.999968 0.250016
vt 0.991269 0.874745
vt 0.999968 0.749984
vt 0.967773 0.966066
vt 0.935673 0.999875
vt 0.032227 0.966065
vt 0.064327 0.999875
vt 0.008731 0.874746
vt 0.000032 0.749984
vt 0.008731 0.125254
vt 0.000032 0.250016
vt 0.032227 0.033935
vt 0.064327 0.000125
vt 0.967773 0.033935
vt 0.935673 0.000125
vt 0.967583 0.035214
vt 0.935661 0.000488
vt 0.990940 0.125994
vt 0.977119 0.157007
vt 0.959603 0.088931
vt 0.999874 0.250064
vt 0.999874 0.749936
vt 0.984091 0.258140
vt 0.990940 0.874006
vt 0.977119 0.842993
vt 0.984091 0.741860
vt 0.967583 0.964786
vt 0.935661 0.999512
vt 0.959603 0.911069
vt 0.064339 0.999512
vt 0.933583 0.938167
vt 0.032417 0.964786
vt 0.040396 0.911069
vt 0.066417 0.938167
vt 0.009060 0.874007
vt 0.000126 0.749936
vt 0.022881 0.842993
vt 0.000126 0.250064
vt 0.015909 0.741860
vt 0.026668 0.263645
vt 0.026668 0.736355
vt 0.032527 0.821349
vt 0.045966 0.873579
vt 0.067834 0.896352
vt 0.932166 0.896352
vt 0.954034 0.873579
vt 0.967473 0.821348
vt 0.973332 0.736355
vt 0.973332 0.263645
vt 0.967473 0.178652
vt 0.954034 0.126421
vt 0.932167 0.103648
vt 0.067834 0.103648
vt 0.045966 0.126421
vt 0.032527 0.178651
vt 0.040396 0.088931
vt 0.022881 0.157007
vt 0.015909 0.258140
vt 0.009060 0.125993
vt 0.064339 0.000488
vt 0.032417 0.035214
vt 0.066417 0.061833
vt 0.933583 0.061833
vn 0.9659 -0.2588 0.0000
vn 0.0000 0.0000 -1.0000
vn 1.0000 0.0000 0.0000
vn 0.9659 0.2588 0.0000
vn 0.7071 0.7071 0.0000
vn 0.2588 0.9659 0.0000
vn 0.0000 1.0000 0.0000
vn -0.2588 0.9659 0.0000
vn -0.7071 0.7071 0.0000
vn -0.9659 0.2588 0.0000
vn -1.0000 0.0000 0.0000
vn -0.9659 -0.2588 0.0000
vn -0.7071 -0.7071 0.0000
vn -0.2588 -0.9659 0.0000
vn 0.0000 -1.0000 0.0000
vn 0.2588 -0.9659 0.0000
vn 0.7071 -0.7071 0.0000
vn 0.0000 0.0000 1.0000
vn 0.9540 -0.2556 0.1564
vn 0.9877 0.0000 0.1564
vn 0.9540 0.2556 0.1564
vn 0.6984 0.6984 0.1564
vn 0.2556 0.9540 0.1564
vn 0.0000 0.9877 0.1564
vn -0.2556 0.9540 0.1564
vn -0.6984 0.6984 0.1564
vn -0.9540 0.2556 0.1564
vn -0.9877 0.0000 0.1564
vn -0.9540 -0.2556 0.1564
vn -0.6984 -0.6984 0.1564
vn -0.2556 -0.9540 0.1564
vn 0.0000 -0.9877 0.1564
vn 0.2556 -0.9540 0.1564
vn 0.6984 -0.6984 0.1564
vn 0.2306 -0.8606 0.4540
vn 0.6300 -0.6300 0.4540
vn 0.8606 -0.2306 0.4540
vn 0.5000 -0.5000 0.7071
vn 0.6830 -0.1830 0.7071
vn 0.8910 0.0000 0.4540
vn 0.7071 0.0000 0.7071
vn 0.8606 0.2306 0.4540
vn 0.6830 0.1830 0.7071
vn 0.6300 0.6300 0.4540
vn 0.5000 0.5000 0.7071
vn 0.2306 0.8606 0.4540
vn 0.1830 0.6830 0.7071
vn 0.0000 0.8910 0.4540
vn 0.0000 0.7071 0.7071
vn -0.2306 0.8606 0.4540
vn -0.1830 0.6830 0.7071
vn -0.6300 0.6300 0.4540
vn -0.5000 0.5000 0.7071
vn -0.8606 0.2306 0.4540
vn -0.6830 0.1830 0.7071
vn -0.8910 0.0000 0.4540
vn -0.7071 0.0000 0.7071
vn -0.4540 0.0000 0.8910
vn -0.4385 0.1175 0.8910
vn -0.1564 0.0000 0.9877
vn -0.1511 0.0405 0.9877
vn -0.3210 0.3210 0.8910
vn -0.1106 0.1106 0.9877
vn -0.0405 0.1511 0.9877
vn 0.0000 0.1564 0.9877
vn 0.0405 0.1511 0.9877
vn 0.1106 0.1106 0.9877
vn 0.1511 0.0405 0.9877
vn 0.1564 0.0000 0.9877
vn 0.1511 -0.0405 0.9877
vn 0.1106 -0.1106 0.9877
vn 0.0405 -0.1511 0.9877
vn 0.0000 -0.1564 0.9877
vn -0.0405 -0.1511 0.9877
vn -0.1106 -0.1106 0.9877
vn -0.1511 -0.0405 0.9877
vn -0.3210 -0.3210 0.8910
vn -0.4385 -0.1175 0.8910
vn -0.5000 -0.5000 0.7071
vn -0.6830 -0.1830 0.7071
vn -0.1830 -0.6830 0.7071
vn -0.1175 -0.4385 0.8910
vn 0.0000 -0.7071 0.7071
vn 0.0000 -0.4540 0.8910
vn 0.1830 -0.6830 0.7071
vn 0.1175 -0.4385 0.8910
vn 0.3210 -0.3210 0.8910
vn 0.0000 -0.8910 0.4540
vn -0.2306 -0.8606 0.4540
vn -0.6300 -0.6300 0.4540
vn -0.8606 -0.2306 0.4540
vn 0.4385 -0.1175 0.8910
vn 0.4540 0.0000 0.8910
vn 0.4385 0.1175 0.8910
vn 0.3210 0.3210 0.8910
vn 0.1175 0.4385 0.8910
vn 0.0000 0.4540 0.8910
vn -0.1175 0.4385 0.8910
usemtl Material.001
s off
f 1/1/1 5/2/1 2/3/1
f 14/4/2 1/1/2 37/5/2
f 3/6/3 4/7/3 1/1/3
f 12/8/4 7/9/4 3/6/4
f 13/10/5 9/11/5 12/8/5
f 14/4/6 11/12/6 13/10/6
f 15/13/7 16/14/7 14/4/7
f 23/15/8 18/16/8 15/13/8
f 24/17/9 20/18/9 23/15/9
f 25/19/10 22/20/10 24/17/10
f 26/21/11 27/22/11 25/19/11
f 34/23/12 29/24/12 26/21/12
f 35/25/13 31/26/13 34/23/13
f 36/27/14 33/28/14 35/25/14
f 37/5/15 38/29/15 36/27/15
f 44/30/16 40/31/16 37/5/16
f 2/3/17 42/32/17 44/30/17
f 78/33/18 73/34/18 96/35/18
f 1/1/1 4/7/1 5/2/1
f 34/23/2 26/21/2 36/27/2
f 26/21/2 25/19/2 36/27/2
f 25/19/2 24/17/2 23/15/2
f 23/15/2 15/13/2 25/19/2
f 15/13/2 14/4/2 36/27/2
f 14/4/2 13/10/2 12/8/2
f 12/8/2 3/6/2 14/4/2
f 3/6/2 1/1/2 14/4/2
f 1/1/2 2/3/2 44/30/2
f 44/30/2 37/5/2 1/1/2
f 37/5/2 36/27/2 14/4/2
f 36/27/2 35/25/2 34/23/2
f 36/27/2 25/19/2 15/13/2
f 3/6/3 7/9/3 4/7/3
f 12/8/4 9/11/4 7/9/4
f 13/10/5 11/12/5 9/11/5
f 14/4/6 16/14/6 11/12/6
f 15/13/7 18/16/7 16/14/7
f 23/15/8 20/18/8 18/16/8
f 24/17/9 22/20/9 20/18/9
f 25/19/10 27/22/10 22/20/10
f 26/21/11 29/24/11 27/22/11
f 34/23/12 31/26/12 29/24/12
f 35/25/13 33/28/13 31/26/13
f 36/27/14 38/29/14 33/28/14
f 37/5/15 40/31/15 38/29/15
f 44/30/16 42/32/16 40/31/16
f 2/3/17 5/2/17 42/32/17
f 73/34/18 102/36/18 96/35/18
f 102/36/18 100/37/18 96/35/18
f 100/37/18 98/38/18 96/35/18
f 96/35/18 94/39/18 80/40/18
f 94/39/18 92/41/18 88/42/18
f 92/41/18 90/43/18 88/42/18
f 88/42/18 86/44/18 80/40/18
f 86/44/18 84/45/18 80/40/18
f 84/45/18 82/46/18 80/40/18
f 80/40/18 78/33/18 96/35/18
f 78/33/18 77/47/18 73/34/18
f 77/47/18 76/48/18 73/34/18
f 94/39/18 88/42/18 80/40/18
usemtl Material.002
f 4/7/19 46/49/19 5/2/19
f 7/9/20 6/50/20 4/7/20
f 7/9/21 10/51/21 8/52/21
f 9/11/22 56/53/22 10/51/22
f 16/14/23 56/53/23 11/12/23
f 18/16/24 17/54/24 16/14/24
f 18/16/25 21/55/25 19/56/25
f 20/18/26 65/57/26 21/55/26
f 27/22/27 65/57/27 22/20/27
f 29/24/28 28/58/28 27/22/28
f 29/24/29 32/59/29 30/60/29
f 33/28/30 32/59/30 31/26/30
f 38/29/31 112/61/31 33/28/31
f 40/31/32 39/62/32 38/29/32
f 40/31/33 43/63/33 41/64/33
f 5/2/34 43/63/34 42/32/34
f 41/64/35 45/65/35 110/66/35
f 43/63/36 47/67/36 45/65/36
f 6/50/37 47/67/37 46/49/37
f 45/65/38 48/68/38 111/69/38
f 49/70/39 48/68/39 47/67/39
f 8/52/40 49/70/40 6/50/40
f 51/71/41 50/72/41 49/70/41
f 8/52/42 53/73/42 51/71/42
f 51/71/43 54/74/43 52/75/43
f 56/53/44 53/73/44 10/51/44
f 55/76/45 54/74/45 53/73/45
f 17/54/46 55/76/46 56/53/46
f 58/77/47 57/78/47 55/76/47
f 17/54/48 60/79/48 58/77/48
f 60/79/49 59/80/49 58/77/49
f 19/56/50 62/81/50 60/79/50
f 60/79/51 63/82/51 61/83/51
f 21/55/52 64/84/52 62/81/52
f 64/84/53 63/82/53 62/81/53
f 28/58/54 64/84/54 65/57/54
f 67/85/55 66/86/55 64/84/55
f 28/58/56 68/87/56 67/85/56
f 68/87/57 69/88/57 67/85/57
f 69/88/58 72/89/58 71/90/58
f 69/88/59 74/91/59 66/86/59
f 71/90/60 102/36/60 73/34/60
f 71/90/61 76/48/61 74/91/61
f 63/82/62 74/91/62 75/92/62
f 75/92/63 76/48/63 77/47/63
f 79/93/64 77/47/64 78/33/64
f 79/93/65 80/40/65 81/94/65
f 81/94/66 82/46/66 83/95/66
f 83/95/67 84/45/67 85/96/67
f 87/97/68 84/45/68 86/44/68
f 87/97/69 88/42/69 89/98/69
f 89/98/70 90/43/70 91/99/70
f 93/100/71 90/43/71 92/41/71
f 95/101/72 92/41/72 94/39/72
f 95/101/73 96/35/73 97/102/73
f 97/102/74 98/38/74 99/103/74
f 99/103/75 100/37/75 101/104/75
f 72/89/76 100/37/76 102/36/76
f 105/105/77 101/104/77 103/106/77
f 70/107/78 101/104/78 72/89/78
f 104/108/79 105/105/79 103/106/79
f 68/87/80 103/106/80 70/107/80
f 108/109/81 105/105/81 106/110/81
f 107/111/82 99/103/82 105/105/82
f 108/109/83 109/112/83 107/111/83
f 107/111/84 95/101/84 97/102/84
f 110/66/85 111/69/85 109/112/85
f 109/112/86 93/100/86 95/101/86
f 48/68/87 93/100/87 111/69/87
f 41/64/88 108/109/88 39/62/88
f 39/62/89 106/110/89 112/61/89
f 112/61/90 104/108/90 32/59/90
f 30/60/91 104/108/91 68/87/91
f 50/72/92 91/99/92 48/68/92
f 50/72/93 87/97/93 89/98/93
f 52/75/94 85/96/94 87/97/94
f 54/74/95 83/95/95 85/96/95
f 59/80/96 83/95/96 57/78/96
f 61/83/97 81/94/97 59/80/97
f 61/83/98 75/92/98 79/93/98
f 4/7/19 6/50/19 46/49/19
f 7/9/20 8/52/20 6/50/20
f 7/9/21 9/11/21 10/51/21
f 9/11/22 11/12/22 56/53/22
f 16/14/23 17/54/23 56/53/23
f 18/16/24 19/56/24 17/54/24
f 18/16/25 20/18/25 21/55/25
f 20/18/26 22/20/26 65/57/26
f 27/22/27 28/58/27 65/57/27
f 29/24/28 30/60/28 28/58/28
f 29/24/29 31/26/29 32/59/29
f 33/28/30 112/61/30 32/59/30
f 38/29/31 39/62/31 112/61/31
f 40/31/32 41/64/32 39/62/32
f 40/31/33 42/32/33 43/63/33
f 5/2/34 46/49/34 43/63/34
f 41/64/35 43/63/35 45/65/35
f 43/63/36 46/49/36 47/67/36
f 6/50/37 49/70/37 47/67/37
f 45/65/38 47/67/38 48/68/38
f 49/70/39 50/72/39 48/68/39
f 8/52/40 51/71/40 49/70/40
f 51/71/41 52/75/41 50/72/41
f 8/52/42 10/51/42 53/73/42
f 51/71/43 53/73/43 54/74/43
f 56/53/44 55/76/44 53/73/44
f 55/76/45 57/78/45 54/74/45
f 17/54/46 58/77/46 55/76/46
f 58/77/47 59/80/47 57/78/47
f 17/54/48 19/56/48 60/79/48
f 60/79/49 61/83/49 59/80/49
f 19/56/50 21/55/50 62/81/50
f 60/79/51 62/81/51 63/82/51
f 21/55/52 65/57/52 64/84/52
f 64/84/53 66/86/53 63/82/53
f 28/58/54 67/85/54 64/84/54
f 67/85/55 69/88/55 66/86/55
f 28/58/56 30/60/56 68/87/56
f 68/87/57 70/107/57 69/88/57
f 69/88/58 70/107/58 72/89/58
f 69/88/59 71/90/59 74/91/59
f 71/90/60 72/89/60 102/36/60
f 71/90/61 73/34/61 76/48/61
f 63/82/62 66/86/62 74/91/62
f 75/92/63 74/91/63 76/48/63
f 79/93/64 75/92/64 77/47/64
f 79/93/65 78/33/65 80/40/65
f 81/94/66 80/40/66 82/46/66
f 83/95/67 82/46/67 84/45/67
f 87/97/68 85/96/68 84/45/68
f 87/97/69 86/44/69 88/42/69
f 89/98/70 88/42/70 90/43/70
f 93/100/71 91/99/71 90/43/71
f 95/101/72 93/100/72 92/41/72
f 95/101/73 94/39/73 96/35/73
f 97/102/74 96/35/74 98/38/74
f 99/103/75 98/38/75 100/37/75
f 72/89/76 101/104/76 100/37/76
f 105/105/77 99/103/77 101/104/77
f 70/107/78 103/106/78 101/104/78
f 104/108/79 106/110/79 105/105/79
f 68/87/80 104/108/80 103/106/80
f 108/109/81 107/111/81 105/105/81
f 107/111/82 97/102/82 99/103/82
f 108/109/83 110/66/83 109/112/83
f 107/111/84 109/112/84 95/101/84
f 110/66/85 45/65/85 111/69/85
f 109/112/86 111/69/86 93/100/86
f 48/68/87 91/99/87 93/100/87
f 41/64/88 110/66/88 108/109/88
f 39/62/89 108/109/89 106/110/89
f 112/61/90 106/110/90 104/108/90
f 30/60/91 32/59/91 104/108/91
f 50/72/92 89/98/92 91/99/92
f 50/72/93 52/75/93 87/97/93
f 52/75/94 54/74/94 85/96/94
f 54/74/95 57/78/95 83/95/95
f 59/80/96 81/94/96 83/95/96
f 61/83/97 79/93/97 81/94/97
f 61/83/98 63/82/98 75/92/98
