# Blender v3.2.1 OBJ File: 'Broken_maze.blend'
# www.blender.org
mtllib 2_Small_Horizontal_Wall.mtl
o Small_Horizontal_Wall.001_Plane.014
v -2.325706 -1.000001 -2.487365
v -2.575706 -0.933014 -2.487365
v 2.325706 -1.000001 -2.487365
v -2.325706 -1.000001 2.212635
v -2.575706 -0.933014 2.212635
v -2.323772 -0.985317 2.305340
v 2.325706 -1.000001 2.212635
v 2.323772 -0.985317 2.305340
v 2.575706 -0.933014 2.212635
v 2.568106 -0.919848 2.305340
v 2.758718 -0.750000 2.212635
v 2.575706 -0.933014 -2.487365
v 2.758718 -0.750000 -2.487365
v 2.825706 -0.500000 -2.487365
v 2.825706 0.500000 -2.487365
v 2.825706 -0.500000 2.212635
v 2.811024 -0.498066 2.305340
v 2.825706 0.500000 2.212635
v 2.811024 0.498066 2.305340
v 2.758718 0.750000 2.212635
v 2.745556 0.742401 2.305340
v 2.575706 0.933012 2.212635
v 2.758718 0.750000 -2.487365
v 2.575706 0.933012 -2.487365
v 2.325706 1.000000 -2.487365
v -2.325706 1.000000 -2.487365
v 2.325706 1.000000 2.212635
v 2.323772 0.985317 2.305340
v -2.325706 1.000000 2.212635
v -2.323772 0.985317 2.305340
v -2.575706 0.933012 2.212635
v -2.568108 0.919849 2.305340
v -2.758718 0.750000 2.212635
v -2.575706 0.933012 -2.487365
v -2.758718 0.750000 -2.487365
v -2.825706 0.500000 -2.487365
v -2.825706 -0.500000 -2.487365
v -2.825706 0.500000 2.212635
v -2.811024 0.498066 2.305340
v -2.825706 -0.500000 2.212635
v -2.811024 -0.498066 2.305340
v -2.758718 -0.750000 2.212635
v -2.745556 -0.742399 2.305340
v -2.758718 -0.750000 -2.487365
v -2.707352 -0.720343 2.388971
v -2.568106 -0.919848 2.305340
v -2.546047 -0.881644 2.388971
v -2.511692 -0.822138 2.455340
v -2.318163 -0.942705 2.388971
v -2.309423 -0.876336 2.455340
v 2.318163 -0.942705 2.388971
v 2.309423 -0.876336 2.455340
v 2.546047 -0.881644 2.388971
v 2.511692 -0.822138 2.455340
v 2.707352 -0.720343 2.388971
v 2.745556 -0.742401 2.305340
v 2.647846 -0.685987 2.455340
v 2.768414 -0.492456 2.388971
v 2.702042 -0.483717 2.455340
v 2.768414 0.492456 2.388971
v 2.702042 0.483717 2.455340
v 2.707352 0.720345 2.388971
v 2.647846 0.685987 2.455340
v 2.546051 0.881645 2.388971
v 2.568108 0.919849 2.305340
v 2.511694 0.822140 2.455340
v 2.318163 0.942707 2.388971
v 2.309423 0.876335 2.455340
v -2.318163 0.942707 2.388971
v -2.309423 0.876335 2.455340
v -2.546051 0.881645 2.388971
v -2.511694 0.822140 2.455340
v -2.707352 0.720345 2.388971
v -2.745556 0.742401 2.305340
v -2.647846 0.685987 2.455340
v -2.768413 0.492456 2.388971
v -2.768413 -0.492456 2.388971
v -2.702044 0.483719 2.455340
v -2.702044 -0.483719 2.455340
v -2.618412 0.472706 2.497952
v -2.618412 -0.472706 2.497952
v -2.525707 0.460501 2.512635
v -2.572866 0.642698 2.497952
v -2.468405 0.747160 2.497952
v -2.489746 0.594709 2.512635
v -2.420416 0.664040 2.512635
v -2.286207 0.700001 2.512635
v -2.298412 0.792706 2.497952
v 2.286207 0.700001 2.512635
v 2.298412 0.792706 2.497952
v 2.420416 0.664040 2.512635
v 2.468405 0.747160 2.497952
v 2.489746 0.594709 2.512635
v 2.572866 0.642698 2.497952
v 2.525707 0.460501 2.512635
v 2.618412 0.472706 2.497952
v 2.525707 -0.460501 2.512635
v 2.618412 -0.472706 2.497952
v 2.489746 -0.594707 2.512635
v 2.572865 -0.642696 2.497952
v 2.420412 -0.664042 2.512635
v 2.468399 -0.747158 2.497952
v 2.286207 -0.700001 2.512635
v 2.298412 -0.792706 2.497952
v -2.286207 -0.700001 2.512635
v -2.298412 -0.792706 2.497952
v -2.420412 -0.664042 2.512635
v -2.468399 -0.747158 2.497952
v -2.489746 -0.594707 2.512635
v -2.572865 -0.642696 2.497952
v -2.525707 -0.460501 2.512635
v -2.647846 -0.685987 2.455340
vt 0.088473 0.000000
vt 0.044237 0.033494
vt 0.044237 0.033494
vt 0.911527 1.000000
vt 1.000000 0.250000
vt 0.911527 0.000000
vt 0.088473 0.000000
vt 0.955763 0.033494
vt 0.911527 0.000000
vt 0.988147 0.125000
vt 0.955763 0.033494
vt 0.988147 0.125000
vt 1.000000 0.750000
vt 1.000000 0.250000
vt 0.988147 0.875000
vt 1.000000 0.750000
vt 0.955763 0.966506
vt 0.988147 0.875000
vt 0.955763 0.966506
vt 0.088473 1.000000
vt 0.911527 1.000000
vt 0.044237 0.966506
vt 0.088473 1.000000
vt 0.011853 0.875000
vt 0.044237 0.966506
vt 0.000000 0.750000
vt 0.011853 0.875000
vt 0.000000 0.250000
vt 0.000000 0.750000
vt 0.011853 0.125000
vt 0.000000 0.250000
vt 0.011853 0.125000
vt 0.071715 0.832020
vt 0.059447 0.797355
vt 0.053084 0.730251
vt 0.053084 0.269750
vt 0.095463 0.150000
vt 0.059447 0.202647
vt 0.071716 0.167980
vt 0.904537 0.150000
vt 0.904537 0.850000
vt 0.928284 0.167980
vt 0.946916 0.269750
vt 0.940553 0.202647
vt 0.946916 0.730251
vt 0.940553 0.797355
vt 0.928285 0.832020
vt 0.095463 0.850001
vt 0.044327 0.033935
vt 0.088479 0.000125
vt 0.955673 0.033934
vt 0.911521 0.000125
vt 0.987991 0.125255
vt 0.999956 0.250017
vt 0.987991 0.874746
vt 0.999956 0.749983
vt 0.955673 0.966065
vt 0.911521 0.999875
vt 0.044327 0.966065
vt 0.088479 0.999875
vt 0.012009 0.874746
vt 0.000044 0.749983
vt 0.012009 0.125255
vt 0.000044 0.250017
vt 0.012462 0.125994
vt 0.000173 0.250065
vt 0.044588 0.035214
vt 0.031472 0.157007
vt 0.088496 0.000488
vt 0.055564 0.088932
vt 0.911504 0.000488
vt 0.091355 0.061832
vt 0.955412 0.035214
vt 0.944436 0.088932
vt 0.908645 0.061832
vt 0.987538 0.125994
vt 0.968528 0.157007
vt 0.999827 0.250065
vt 0.999827 0.749935
vt 0.978118 0.258142
vt 0.987538 0.874007
vt 0.968528 0.842994
vt 0.978118 0.741859
vt 0.955412 0.964785
vt 0.911504 0.999512
vt 0.944436 0.911070
vt 0.088496 0.999512
vt 0.908645 0.938168
vt 0.044588 0.964786
vt 0.055564 0.911070
vt 0.091355 0.938168
vt 0.012462 0.874008
vt 0.000173 0.749936
vt 0.031472 0.842994
vt 0.021882 0.741860
vt 0.021882 0.258141
vt 0.036680 0.736353
vt 0.044739 0.821349
vt 0.036680 0.263647
vt 0.063223 0.873580
vt 0.093303 0.896353
vt 0.906697 0.896353
vt 0.936777 0.873580
vt 0.955261 0.821349
vt 0.963320 0.736353
vt 0.963320 0.263647
vt 0.955260 0.178652
vt 0.936776 0.126421
vt 0.906697 0.103648
vt 0.093303 0.103648
vt 0.063224 0.126421
vt 0.044740 0.178652
vn -0.2588 -0.9659 0.0000
vn 0.0000 0.0000 -1.0000
vn 0.0000 -1.0000 0.0000
vn 0.2588 -0.9659 0.0000
vn 0.7071 -0.7071 0.0000
vn 0.9659 -0.2588 0.0000
vn 1.0000 0.0000 0.0000
vn 0.9659 0.2588 0.0000
vn 0.7071 0.7071 0.0000
vn 0.2588 0.9659 0.0000
vn 0.0000 1.0000 0.0000
vn -0.2588 0.9659 0.0000
vn -0.7071 0.7071 0.0000
vn -0.9659 0.2588 0.0000
vn -1.0000 0.0000 0.0000
vn -0.9659 -0.2588 0.0000
vn -0.7071 -0.7071 0.0000
vn 0.0000 0.0000 1.0000
vn -0.2556 -0.9540 0.1564
vn 0.0000 -0.9877 0.1564
vn 0.2556 -0.9540 0.1564
vn 0.6984 -0.6984 0.1564
vn 0.9540 -0.2556 0.1564
vn 0.9877 0.0000 0.1564
vn 0.9540 0.2556 0.1564
vn 0.6984 0.6984 0.1564
vn 0.2556 0.9540 0.1564
vn 0.0000 0.9877 0.1564
vn -0.2556 0.9540 0.1564
vn -0.6984 0.6984 0.1564
vn -0.9540 0.2556 0.1564
vn -0.9877 0.0000 0.1564
vn -0.9540 -0.2556 0.1564
vn -0.6984 -0.6984 0.1564
vn -0.8607 -0.2306 0.4540
vn -0.6300 -0.6300 0.4540
vn -0.2306 -0.8606 0.4540
vn -0.5000 -0.5000 0.7071
vn -0.1830 -0.6830 0.7071
vn 0.0000 -0.8910 0.4540
vn 0.0000 -0.7071 0.7071
vn 0.2306 -0.8606 0.4540
vn 0.1830 -0.6830 0.7071
vn 0.6300 -0.6300 0.4540
vn 0.5000 -0.5000 0.7071
vn 0.8606 -0.2306 0.4540
vn 0.6830 -0.1830 0.7071
vn 0.8910 0.0000 0.4540
vn 0.7071 0.0000 0.7071
vn 0.8607 0.2306 0.4540
vn 0.6830 0.1830 0.7071
vn 0.6300 0.6300 0.4540
vn 0.5000 0.5000 0.7071
vn 0.2306 0.8607 0.4540
vn 0.1830 0.6830 0.7071
vn 0.0000 0.8910 0.4540
vn 0.0000 0.7071 0.7071
vn -0.2306 0.8607 0.4540
vn -0.1830 0.6830 0.7071
vn -0.6300 0.6300 0.4540
vn -0.5000 0.5000 0.7071
vn -0.8607 0.2306 0.4540
vn -0.6830 0.1830 0.7071
vn -0.8910 0.0000 0.4540
vn -0.7071 0.0000 0.7071
vn -0.4540 0.0000 0.8910
vn -0.4385 0.1175 0.8910
vn -0.1564 0.0000 0.9877
vn -0.1511 0.0405 0.9877
vn -0.3210 0.3210 0.8910
vn -0.1106 0.1106 0.9877
vn -0.0405 0.1511 0.9877
vn 0.0000 0.1564 0.9877
vn 0.0405 0.1511 0.9877
vn 0.1106 0.1106 0.9877
vn 0.1511 0.0405 0.9877
vn 0.1564 0.0000 0.9877
vn 0.1511 -0.0405 0.9877
vn 0.1106 -0.1106 0.9877
vn 0.0405 -0.1511 0.9877
vn 0.0000 -0.1564 0.9877
vn -0.0405 -0.1511 0.9877
vn -0.1106 -0.1106 0.9877
vn -0.1511 -0.0405 0.9877
vn -0.3210 -0.3210 0.8910
vn -0.4385 -0.1175 0.8910
vn -0.6830 -0.1830 0.7071
vn -0.1175 -0.4385 0.8910
vn 0.0000 -0.4540 0.8910
vn 0.1175 -0.4385 0.8910
vn 0.3210 -0.3210 0.8910
vn 0.4385 -0.1175 0.8910
vn 0.4540 0.0000 0.8910
vn 0.4385 0.1175 0.8910
vn 0.3210 0.3210 0.8910
vn 0.1175 0.4385 0.8910
vn 0.0000 0.4540 0.8910
vn -0.1175 0.4385 0.8910
vn 0.8607 -0.2306 0.4540
usemtl Material.001
s off
f 1/1/1 5/2/1 2/3/1
f 25/4/2 14/5/2 3/6/2
f 3/6/3 4/7/3 1/1/3
f 12/8/4 7/9/4 3/6/4
f 13/10/5 9/11/5 12/8/5
f 14/5/6 11/12/6 13/10/6
f 15/13/7 16/14/7 14/5/7
f 23/15/8 18/16/8 15/13/8
f 24/17/9 20/18/9 23/15/9
f 25/4/10 22/19/10 24/17/10
f 26/20/11 27/21/11 25/4/11
f 34/22/12 29/23/12 26/20/12
f 35/24/13 31/25/13 34/22/13
f 36/26/14 33/27/14 35/24/14
f 37/28/15 38/29/15 36/26/15
f 44/30/16 40/31/16 37/28/16
f 2/3/17 42/32/17 44/30/17
f 86/33/18 85/34/18 82/35/18
f 1/1/1 4/7/1 5/2/1
f 44/30/2 37/28/2 1/1/2
f 37/28/2 36/26/2 1/1/2
f 36/26/2 35/24/2 34/22/2
f 34/22/2 26/20/2 36/26/2
f 26/20/2 25/4/2 1/1/2
f 25/4/2 24/17/2 23/15/2
f 23/15/2 15/13/2 25/4/2
f 15/13/2 14/5/2 25/4/2
f 14/5/2 13/10/2 12/8/2
f 12/8/2 3/6/2 14/5/2
f 3/6/2 1/1/2 25/4/2
f 1/1/2 2/3/2 44/30/2
f 1/1/2 36/26/2 26/20/2
f 3/6/3 7/9/3 4/7/3
f 12/8/4 9/11/4 7/9/4
f 13/10/5 11/12/5 9/11/5
f 14/5/6 16/14/6 11/12/6
f 15/13/7 18/16/7 16/14/7
f 23/15/8 20/18/8 18/16/8
f 24/17/9 22/19/9 20/18/9
f 25/4/10 27/21/10 22/19/10
f 26/20/11 29/23/11 27/21/11
f 34/22/12 31/25/12 29/23/12
f 35/24/13 33/27/13 31/25/13
f 36/26/14 38/29/14 33/27/14
f 37/28/15 40/31/15 38/29/15
f 44/30/16 42/32/16 40/31/16
f 2/3/17 5/2/17 42/32/17
f 82/35/18 111/36/18 105/37/18
f 111/36/18 109/38/18 105/37/18
f 109/38/18 107/39/18 105/37/18
f 105/37/18 103/40/18 89/41/18
f 103/40/18 101/42/18 97/43/18
f 89/41/18 103/40/18 97/43/18
f 101/42/18 99/44/18 97/43/18
f 97/43/18 95/45/18 89/41/18
f 95/45/18 93/46/18 89/41/18
f 93/46/18 91/47/18 89/41/18
f 89/41/18 87/48/18 105/37/18
f 87/48/18 86/33/18 82/35/18
f 105/37/18 87/48/18 82/35/18
usemtl Material.002
f 4/7/19 46/49/19 5/2/19
f 7/9/20 6/50/20 4/7/20
f 7/9/21 10/51/21 8/52/21
f 11/12/22 10/51/22 9/11/22
f 16/14/23 56/53/23 11/12/23
f 18/16/24 17/54/24 16/14/24
f 18/16/25 21/55/25 19/56/25
f 20/18/26 65/57/26 21/55/26
f 27/21/27 65/57/27 22/19/27
f 29/23/28 28/58/28 27/21/28
f 29/23/29 32/59/29 30/60/29
f 33/27/30 32/59/30 31/25/30
f 38/29/31 74/61/31 33/27/31
f 40/31/32 39/62/32 38/29/32
f 40/31/33 43/63/33 41/64/33
f 42/32/34 46/49/34 43/63/34
f 41/64/35 45/65/35 77/66/35
f 46/49/36 45/65/36 43/63/36
f 6/50/37 47/67/37 46/49/37
f 47/67/38 112/68/38 45/65/38
f 49/69/39 48/70/39 47/67/39
f 8/52/40 49/69/40 6/50/40
f 51/71/41 50/72/41 49/69/41
f 8/52/42 53/73/42 51/71/42
f 51/71/43 54/74/43 52/75/43
f 10/51/44 55/76/44 53/73/44
f 53/73/45 57/77/45 54/74/45
f 17/54/46 55/76/46 56/53/46
f 58/78/47 57/77/47 55/76/47
f 19/56/48 58/78/48 17/54/48
f 60/79/49 59/80/49 58/78/49
f 19/56/50 62/81/50 60/79/50
f 60/79/51 63/82/51 61/83/51
f 65/57/52 62/81/52 21/55/52
f 64/84/53 63/82/53 62/81/53
f 28/58/54 64/84/54 65/57/54
f 67/85/55 66/86/55 64/84/55
f 30/60/56 67/85/56 28/58/56
f 69/87/57 68/88/57 67/85/57
f 30/60/58 71/89/58 69/87/58
f 69/87/59 72/90/59 70/91/59
f 74/61/60 71/89/60 32/59/60
f 73/92/61 72/90/61 71/89/61
f 39/62/62 73/92/62 74/61/62
f 76/93/63 75/94/63 73/92/63
f 41/64/64 76/93/64 39/62/64
f 77/66/65 78/95/65 76/93/65
f 79/96/66 80/97/66 78/95/66
f 78/95/67 83/98/67 75/94/67
f 81/99/68 82/35/68 80/97/68
f 80/97/69 85/34/69 83/98/69
f 72/90/70 83/98/70 84/100/70
f 83/98/71 86/33/71 84/100/71
f 88/101/72 86/33/72 87/48/72
f 90/102/73 87/48/73 89/41/73
f 90/102/74 91/47/74 92/103/74
f 94/104/75 91/47/75 93/46/75
f 96/105/76 93/46/76 95/45/76
f 96/105/77 97/43/77 98/106/77
f 98/106/78 99/44/78 100/107/78
f 102/108/79 99/44/79 101/42/79
f 104/109/80 101/42/80 103/40/80
f 106/110/81 103/40/81 105/37/81
f 106/110/82 107/39/82 108/111/82
f 108/111/83 109/38/83 110/112/83
f 81/99/84 109/38/84 111/36/84
f 48/70/85 110/112/85 112/68/85
f 79/96/86 110/112/86 81/99/86
f 77/66/87 112/68/87 79/96/87
f 50/72/88 108/111/88 48/70/88
f 52/75/89 106/110/89 50/72/89
f 52/75/90 102/108/90 104/109/90
f 54/74/91 100/107/91 102/108/91
f 59/80/92 100/107/92 57/77/92
f 61/83/93 98/106/93 59/80/93
f 61/83/94 94/104/94 96/105/94
f 66/86/95 94/104/95 63/82/95
f 68/88/96 92/103/96 66/86/96
f 70/91/97 90/102/97 68/88/97
f 70/91/98 84/100/98 88/101/98
f 4/7/19 6/50/19 46/49/19
f 7/9/20 8/52/20 6/50/20
f 7/9/21 9/11/21 10/51/21
f 11/12/22 56/53/22 10/51/22
f 16/14/23 17/54/23 56/53/23
f 18/16/24 19/56/24 17/54/24
f 18/16/25 20/18/25 21/55/25
f 20/18/26 22/19/26 65/57/26
f 27/21/27 28/58/27 65/57/27
f 29/23/28 30/60/28 28/58/28
f 29/23/29 31/25/29 32/59/29
f 33/27/30 74/61/30 32/59/30
f 38/29/31 39/62/31 74/61/31
f 40/31/32 41/64/32 39/62/32
f 40/31/33 42/32/33 43/63/33
f 42/32/34 5/2/34 46/49/34
f 41/64/35 43/63/35 45/65/35
f 46/49/36 47/67/36 45/65/36
f 6/50/37 49/69/37 47/67/37
f 47/67/38 48/70/38 112/68/38
f 49/69/39 50/72/39 48/70/39
f 8/52/40 51/71/40 49/69/40
f 51/71/41 52/75/41 50/72/41
f 8/52/42 10/51/42 53/73/42
f 51/71/43 53/73/43 54/74/43
f 10/51/44 56/53/44 55/76/44
f 53/73/45 55/76/45 57/77/45
f 17/54/99 58/78/99 55/76/99
f 58/78/47 59/80/47 57/77/47
f 19/56/48 60/79/48 58/78/48
f 60/79/49 61/83/49 59/80/49
f 19/56/50 21/55/50 62/81/50
f 60/79/51 62/81/51 63/82/51
f 65/57/52 64/84/52 62/81/52
f 64/84/53 66/86/53 63/82/53
f 28/58/54 67/85/54 64/84/54
f 67/85/55 68/88/55 66/86/55
f 30/60/56 69/87/56 67/85/56
f 69/87/57 70/91/57 68/88/57
f 30/60/58 32/59/58 71/89/58
f 69/87/59 71/89/59 72/90/59
f 74/61/60 73/92/60 71/89/60
f 73/92/61 75/94/61 72/90/61
f 39/62/62 76/93/62 73/92/62
f 76/93/63 78/95/63 75/94/63
f 41/64/64 77/66/64 76/93/64
f 77/66/65 79/96/65 78/95/65
f 79/96/66 81/99/66 80/97/66
f 78/95/67 80/97/67 83/98/67
f 81/99/68 111/36/68 82/35/68
f 80/97/69 82/35/69 85/34/69
f 72/90/70 75/94/70 83/98/70
f 83/98/71 85/34/71 86/33/71
f 88/101/72 84/100/72 86/33/72
f 90/102/73 88/101/73 87/48/73
f 90/102/74 89/41/74 91/47/74
f 94/104/75 92/103/75 91/47/75
f 96/105/76 94/104/76 93/46/76
f 96/105/77 95/45/77 97/43/77
f 98/106/78 97/43/78 99/44/78
f 102/108/79 100/107/79 99/44/79
f 104/109/80 102/108/80 101/42/80
f 106/110/81 104/109/81 103/40/81
f 106/110/82 105/37/82 107/39/82
f 108/111/83 107/39/83 109/38/83
f 81/99/84 110/112/84 109/38/84
f 48/70/85 108/111/85 110/112/85
f 79/96/86 112/68/86 110/112/86
f 77/66/87 45/65/87 112/68/87
f 50/72/88 106/110/88 108/111/88
f 52/75/89 104/109/89 106/110/89
f 52/75/90 54/74/90 102/108/90
f 54/74/91 57/77/91 100/107/91
f 59/80/92 98/106/92 100/107/92
f 61/83/93 96/105/93 98/106/93
f 61/83/94 63/82/94 94/104/94
f 66/86/95 92/103/95 94/104/95
f 68/88/96 90/102/96 92/103/96
f 70/91/97 88/101/97 90/102/97
f 70/91/98 72/90/98 84/100/98
